<?xml version="1.0" encoding="UTF-8"?>
<svg width="400" height="400" viewBox="0 0 400 400" xmlns="http://www.w3.org/2000/svg">
    <!-- 身体 -->
    <ellipse cx="200" cy="250" rx="120" ry="100" fill="none" stroke="black" stroke-width="3"/>
    
    <!-- 头部 -->
    <circle cx="200" cy="150" r="80" fill="none" stroke="black" stroke-width="3"/>
    
    <!-- 耳朵 -->
    <path d="M150 100 L120 50 L180 100 Z" fill="none" stroke="black" stroke-width="3"/>
    <path d="M250 100 L280 50 L220 100 Z" fill="none" stroke="black" stroke-width="3"/>
    
    <!-- 眼睛 -->
    <ellipse cx="160" cy="140" rx="15" ry="20" fill="none" stroke="black" stroke-width="3"/>
    <ellipse cx="240" cy="140" rx="15" ry="20" fill="none" stroke="black" stroke-width="3"/>
    
    <!-- 鼻子 -->
    <path d="M190 160 L210 160 L200 170 Z" fill="none" stroke="black" stroke-width="3"/>
    
    <!-- 嘴巴 -->
    <path d="M180 180 Q200 190 220 180" fill="none" stroke="black" stroke-width="3"/>
    
    <!-- 尾巴 -->
    <path d="M320 250 Q350 200 330 150" fill="none" stroke="black" stroke-width="3"/>
    
    <!-- 腿 -->
    <line x1="140" y1="350" x2="140" y2="380" stroke="black" stroke-width="3"/>
    <line x1="180" y1="350" x2="180" y2="380" stroke="black" stroke-width="3"/>
    <line x1="220" y1="350" x2="220" y2="380" stroke="black" stroke-width="3"/>
    <line x1="260" y1="350" x2="260" y2="380" stroke="black" stroke-width="3"/>
</svg> 