<?xml version="1.0" encoding="UTF-8"?>
<!-- Generated by @neplex/vectorizer (Using visioncortex VTracer) -->
<svg xmlns="http://www.w3.org/2000/svg" width="512" height="512" viewBox="2 2 512 512" preserveAspectRatio="xMidYMid meet">
<path d="M0 0 C13.65 12.7 19.77 29.37 20.46 47.74 C20.1 64.29 14.62 78.52 3.04 90.42 C-7.33 99.78 -19.98 104.58 -33.62 106.82 C-33.23 107.78 -32.83 108.73 -32.42 109.71 C-20.35 139.17 -20.19 170.29 -32.49 199.9 C-40.78 219.19 -52.78 235.83 -67.12 251.12 C-69.13 253.29 -71.05 255.49 -72.94 257.76 C-81.68 267.8 -92.15 276.29 -102.7 284.34 C-104.78 285.94 -106.85 287.57 -108.91 289.2 C-117.81 296.21 -126.85 302.93 -136.15 309.39 C-138.12 310.77 -140.08 312.17 -141.98 313.65 C-143.62 314.82 -143.62 314.82 -145.62 314.82 C-145.62 315.48 -145.62 316.14 -145.62 316.82 C-144.31 317.48 -142.99 318.14 -141.62 318.82 C-132.67 324.8 -126.06 332.49 -122.62 342.82 C-121.98 348.03 -121.76 352.38 -124.5 356.95 C-127.13 359.26 -128.26 359.76 -131.75 360.32 C-137.31 359.6 -139.69 356.6 -143.62 352.82 C-159.96 338.59 -180.19 335.66 -201.21 337.06 C-221.39 339.08 -239.61 346.63 -258.17 354.39 C-297.46 370.68 -340.28 382.87 -381.62 365.82 C-390.18 361.88 -397.59 357.08 -404.62 350.82 C-405.32 350.21 -406.02 349.59 -406.74 348.96 C-420.49 336.06 -427.19 318.73 -427.94 300.07 C-427.41 279.64 -419.39 261.53 -404.71 247.46 C-396.6 240.52 -387.81 235.43 -377.76 231.89 C-377.41 231.71 -377.41 231.71 -375.62 230.82 C-375.62 226.71 -377.36 225.01 -379.69 221.63 C-396.65 196.08 -402.96 163.41 -397 133.32 C-391.24 106.76 -377.03 82.83 -354.31 67.45 C-331.27 52.86 -303.57 46.96 -276.62 52.01 C-274.28 52.57 -271.95 53.17 -269.62 53.82 C-268.41 54.15 -267.19 54.48 -265.94 54.82 C-244.12 61.38 -224.32 75.73 -212 94.98 C-211.55 95.59 -211.09 96.2 -210.62 96.82 C-209.97 96.82 -209.31 96.82 -208.62 96.82 C-207.36 95.31 -207.36 95.31 -205.81 93.13 C-192.58 75.77 -175.5 63.52 -154.62 56.82 C-172.04 56.16 -186.06 59.03 -200.44 69.13 C-204.16 71.69 -206.99 72.91 -211.62 72.82 C-215.2 71.23 -216.44 70.1 -218.62 66.82 C-219.94 59.93 -218.29 54.96 -214.44 49.26 C-213.84 48.45 -213.24 47.65 -212.62 46.82 C-212.07 46.06 -211.51 45.29 -210.94 44.51 C-198.89 29.56 -179.2 22.04 -160.62 19.82 C-135.26 18.54 -113.09 25.62 -90.62 36.82 C-90.84 36.24 -91.06 35.66 -91.28 35.05 C-94.48 25.63 -95.26 16.42 -91 7.2 C-84.56 -3.93 -74.48 -9.94 -62.38 -13.55 C-39.88 -19.33 -18 -14.95 0 0 Z M-351.62 278.82 C-353.49 282.55 -353.05 286.75 -352.62 290.82 C-349.14 299.54 -342.25 303.25 -334.06 307.01 C-317.85 313.59 -300.39 314.75 -283.12 313.01 C-282.31 312.93 -281.49 312.84 -280.64 312.76 C-274.89 312.08 -274.89 312.08 -272.62 309.82 C-273.18 309.38 -273.74 308.94 -274.32 308.49 C-281.93 302.47 -289.28 296.16 -296.62 289.82 C-298.96 287.82 -301.29 285.82 -303.62 283.82 C-304.1 284.35 -304.57 284.88 -305.06 285.43 C-312.04 292.89 -318.64 296.33 -328.92 296.92 C-334.73 296.71 -339.05 294.8 -343.94 291.76 C-347.07 288.33 -348.36 285.18 -349.86 280.83 C-350.11 280.17 -350.37 279.5 -350.62 278.82 C-350.95 278.82 -351.28 278.82 -351.62 278.82 Z " fill="#fb5041" transform="translate(461.625,79.1796875)"/>
<path d="M0 0 C13.65 12.7 19.77 29.37 20.46 47.74 C20.1 64.29 14.62 78.52 3.04 90.42 C-7.33 99.78 -19.98 104.58 -33.62 106.82 C-33.23 107.78 -32.83 108.73 -32.42 109.71 C-20.35 139.17 -20.19 170.29 -32.49 199.9 C-40.78 219.19 -52.78 235.83 -67.12 251.12 C-69.13 253.29 -71.05 255.49 -72.94 257.76 C-81.68 267.8 -92.15 276.29 -102.7 284.34 C-104.78 285.94 -106.85 287.57 -108.91 289.2 C-117.81 296.21 -126.85 302.93 -136.15 309.39 C-138.12 310.77 -140.08 312.17 -141.98 313.65 C-143.62 314.82 -143.62 314.82 -145.62 314.82 C-145.62 315.48 -145.62 316.14 -145.62 316.82 C-144.31 317.48 -142.99 318.14 -141.62 318.82 C-132.67 324.8 -126.06 332.49 -122.62 342.82 C-121.98 348.03 -121.76 352.38 -124.5 356.95 C-127.13 359.26 -128.26 359.76 -131.75 360.32 C-137.31 359.6 -139.69 356.6 -143.62 352.82 C-159.96 338.59 -180.19 335.66 -201.21 337.06 C-221.39 339.08 -239.61 346.63 -258.17 354.39 C-297.46 370.68 -340.28 382.87 -381.62 365.82 C-390.18 361.88 -397.59 357.08 -404.62 350.82 C-405.32 350.21 -406.02 349.59 -406.74 348.96 C-420.49 336.06 -427.19 318.73 -427.94 300.07 C-427.41 279.64 -419.39 261.53 -404.71 247.46 C-396.6 240.52 -387.81 235.43 -377.76 231.89 C-377.41 231.71 -377.41 231.71 -375.62 230.82 C-375.62 226.71 -377.36 225.01 -379.69 221.63 C-396.65 196.08 -402.96 163.41 -397 133.32 C-391.24 106.76 -377.03 82.83 -354.31 67.45 C-331.27 52.86 -303.57 46.96 -276.62 52.01 C-274.28 52.57 -271.95 53.17 -269.62 53.82 C-268.41 54.15 -267.19 54.48 -265.94 54.82 C-244.12 61.38 -224.32 75.73 -212 94.98 C-211.55 95.59 -211.09 96.2 -210.62 96.82 C-209.97 96.82 -209.31 96.82 -208.62 96.82 C-207.36 95.31 -207.36 95.31 -205.81 93.13 C-192.58 75.77 -175.5 63.52 -154.62 56.82 C-172.04 56.16 -186.06 59.03 -200.44 69.13 C-204.16 71.69 -206.99 72.91 -211.62 72.82 C-215.2 71.23 -216.44 70.1 -218.62 66.82 C-219.94 59.93 -218.29 54.96 -214.44 49.26 C-213.84 48.45 -213.24 47.65 -212.62 46.82 C-212.07 46.06 -211.51 45.29 -210.94 44.51 C-198.89 29.56 -179.2 22.04 -160.62 19.82 C-135.26 18.54 -113.09 25.62 -90.62 36.82 C-90.84 36.24 -91.06 35.66 -91.28 35.05 C-94.48 25.63 -95.26 16.42 -91 7.2 C-84.56 -3.93 -74.48 -9.94 -62.38 -13.55 C-39.88 -19.33 -18 -14.95 0 0 Z M-361.81 94.07 C-379.6 115.05 -385.63 140.4 -383.43 167.25 C-381.67 184.21 -375.4 200.28 -366.62 214.82 C-365.95 215.96 -365.28 217.1 -364.58 218.28 C-360.64 224.63 -360.64 224.63 -358.62 226.82 C-355.88 227.14 -355.88 227.14 -353.62 226.82 C-354.73 222.41 -356.44 219.78 -358.94 216.01 C-370.66 198.24 -374.64 180.81 -375.62 159.82 C-371.62 160.82 -371.62 160.82 -369.77 163.89 C-369.14 165.23 -368.52 166.57 -367.88 167.95 C-367.17 169.42 -366.47 170.89 -365.76 172.36 C-365.4 173.1 -365.05 173.85 -364.68 174.62 C-357.14 190.33 -348.05 204.65 -336.62 217.82 C-335.85 218.72 -335.07 219.62 -334.27 220.54 C-328.76 226.81 -323.37 231.78 -316.19 236.07 C-307.52 241.52 -302.42 248.99 -299.62 258.82 C-299.55 259.93 -299.48 261.04 -299.4 262.19 C-298.39 266.93 -295.88 269.49 -292.56 272.82 C-291.97 273.44 -291.37 274.06 -290.76 274.69 C-286.57 278.98 -282.23 282.99 -277.62 286.82 C-275.81 288.4 -273.99 289.99 -272.18 291.58 C-269.59 293.84 -266.97 296.08 -264.35 298.32 C-262.87 299.61 -261.42 300.92 -259.97 302.25 C-259.24 302.89 -258.51 303.53 -257.75 304.2 C-257.15 304.74 -256.56 305.28 -255.95 305.84 C-252.17 307.43 -248.55 306.47 -244.62 305.82 C-243.64 305.67 -242.65 305.51 -241.63 305.35 C-239.42 305.01 -237.21 304.66 -235 304.31 C-212.97 300.9 -190.3 299.59 -168.75 306.57 C-164.34 307.91 -162.96 308.1 -158.62 306.82 C-155.5 304.94 -152.64 302.74 -149.75 300.51 C-148.92 299.88 -148.08 299.25 -147.22 298.6 C-145.51 297.3 -143.8 296 -142.09 294.7 C-139.84 292.99 -137.58 291.29 -135.32 289.61 C-91.56 257.11 -91.56 257.11 -75.62 237.82 C-75.21 237.35 -75.21 237.35 -73.12 234.97 C-54.1 213.18 -38.11 184.96 -38.31 155.26 C-38.32 154.4 -38.32 153.54 -38.33 152.65 C-38.62 136.21 -42.4 121.53 -51.62 107.82 C-52.29 106.83 -52.94 105.84 -53.62 104.82 C-55.77 104.27 -55.77 104.27 -58.44 103.95 C-78.36 100.71 -95.5 88.4 -110.46 75.52 C-121.77 66.05 -121.77 66.05 -130.19 65.82 C-133.91 66.16 -133.91 66.16 -137.62 66.82 C-138.85 67.04 -140.07 67.25 -141.34 67.48 C-155.6 70.71 -168.28 77.73 -179.62 86.82 C-180.26 87.3 -180.89 87.78 -181.54 88.27 C-190.75 95.59 -197.79 106.11 -203.99 116 C-205.25 117.95 -205.25 117.95 -207.62 120.82 C-210.1 121.23 -210.1 121.23 -212.62 120.82 C-214.12 119.27 -214.12 119.27 -215.35 117.09 C-215.82 116.29 -216.29 115.49 -216.77 114.67 C-217.26 113.81 -217.75 112.96 -218.25 112.07 C-223.29 103.65 -228.56 96.7 -235.62 89.82 C-236.04 89.41 -236.04 89.41 -238.11 87.34 C-254.1 72.12 -274.93 65.4 -296.69 65.57 C-297.7 65.56 -298.71 65.55 -299.75 65.55 C-323.49 65.61 -345.7 76.92 -361.81 94.07 Z M-351.62 278.82 C-353.49 282.55 -353.05 286.75 -352.62 290.82 C-349.14 299.54 -342.25 303.25 -334.06 307.01 C-317.85 313.59 -300.39 314.75 -283.12 313.01 C-282.31 312.93 -281.49 312.84 -280.64 312.76 C-274.89 312.08 -274.89 312.08 -272.62 309.82 C-273.18 309.38 -273.74 308.94 -274.32 308.49 C-281.93 302.47 -289.28 296.16 -296.62 289.82 C-298.96 287.82 -301.29 285.82 -303.62 283.82 C-304.1 284.35 -304.57 284.88 -305.06 285.43 C-312.04 292.89 -318.64 296.33 -328.92 296.92 C-334.73 296.71 -339.05 294.8 -343.94 291.76 C-347.07 288.33 -348.36 285.18 -349.86 280.83 C-350.11 280.17 -350.37 279.5 -350.62 278.82 C-350.95 278.82 -351.28 278.82 -351.62 278.82 Z " fill="#0f3726" transform="translate(461.625,79.1796875)"/>
<path d="M0 0 C2.37 1.42 2.37 1.42 4.5 2.94 C5.12 3.38 5.74 3.81 6.38 4.27 C12.89 9.81 16.01 18.33 19.5 25.94 C19.96 26.84 20.42 27.74 20.89 28.67 C24.57 36.41 25 45.47 22.73 53.72 C16.73 67.99 2.11 72.76 -11 79.06 C-12.57 79.82 -14.15 80.58 -15.72 81.34 C-27.73 87.13 -39.81 92.79 -51.95 98.32 C-55.26 99.83 -58.57 101.35 -61.89 102.87 C-76.18 109.45 -90.46 116.02 -104.97 122.13 C-109.25 123.94 -113.43 125.85 -117.56 128 C-122.91 130.76 -128.42 133.02 -134 135.25 C-134.87 135.6 -135.75 135.95 -136.65 136.31 C-146.37 140.15 -155.01 141.44 -165.12 138.04 C-176.22 132.92 -181.43 121.89 -185.52 111.05 C-188.25 102.38 -188.92 94.26 -185.12 85.88 C-173.64 65.29 -144.36 56.28 -124.17 46.69 C-119.45 44.44 -114.73 42.16 -110.02 39.89 C-99.71 34.91 -89.4 29.96 -79.07 25.03 C-74.11 22.67 -69.16 20.29 -64.21 17.9 C-51.4 11.71 -38.54 5.64 -25.5 -0.06 C-24.64 -0.46 -23.79 -0.86 -22.9 -1.28 C-15.72 -3.62 -6.82 -3.19 0 0 Z " fill="#fbefd0" transform="translate(352.5,198.0625)"/>
<path d="M0 0 C0.8 0.26 1.6 0.51 2.42 0.78 C10.35 3.57 16.67 7.69 20.5 15.38 C22.91 21.72 22.88 27.31 20.56 33.69 C18 38.83 14.25 41.77 9 44 C4.4 44.96 0.99 44.54 -3.19 42.25 C-3.79 41.51 -4.38 40.76 -5 40 C-3 36 -3 36 -2 35 C-1.4 29.21 -1.4 29.21 -2 26 C-4.96 22.91 -7.77 20.21 -12.14 19.8 C-18.52 19.68 -23.86 19.99 -28.73 24.65 C-33.62 30.13 -34.31 33.96 -34.21 41.03 C-33.5 51.17 -28.94 59.33 -21.6 66.27 C-14.24 72.38 -6.66 76.15 2.56 78.62 C3.35 78.84 4.13 79.05 4.94 79.27 C28.46 85.4 50.96 82.94 74.38 78.09 C75.22 77.92 76.06 77.74 76.93 77.56 C81.16 76.68 85.39 75.79 89.62 74.87 C120.59 68.22 152.09 66.97 181 82 C188.27 86.79 196.82 93.28 199 102 C195.77 100.38 193.3 98.82 190.44 96.69 C170.15 82.43 143.27 80.2 119.33 84.32 C101.69 87.94 85.16 93.61 68.75 100.94 C34.78 116.03 -2.59 125.6 -39.04 113.54 C-55.68 107.07 -67.71 96.83 -76 81 C-81.78 67.53 -81.91 52.08 -77.31 38.24 C-70.57 21.61 -58.38 10.07 -42.12 2.69 C-29.07 -2.38 -13.47 -4.57 0 0 Z " fill="#fbbb21" transform="translate(128,321)"/>
<path d="M0 0 C0.6 0.46 1.2 0.92 1.82 1.39 C2.68 1.96 3.55 2.54 4.44 3.14 C15 13.14 19.75 26.38 20.19 40.64 C19.95 54.93 14.81 65.81 4.63 75.7 C-7.4 85.88 -23.06 87.56 -38.18 86.39 C-55.29 83.78 -68.85 74.4 -82.1 63.86 C-106.62 44.44 -129.3 34.59 -161.18 37.39 C-171.3 39.16 -179.94 43.31 -188.18 49.39 C-189.17 49.39 -190.16 49.39 -191.18 49.39 C-188.15 40.27 -179.59 35.18 -171.37 31.01 C-153.13 22.24 -131.92 21.77 -112.76 28.2 C-103.56 31.45 -94.58 35.16 -85.68 39.14 C-71 45.69 -54.08 51.09 -38.12 45.76 C-32.17 43.22 -27.95 39.96 -24.25 34.57 C-22.52 29.4 -22.2 24.64 -24.43 19.51 C-27.06 16.32 -29.26 14.69 -33.18 13.39 C-37.92 12.93 -40.28 12.73 -44.18 15.57 C-46.18 18.39 -46.18 18.39 -46.75 20.95 C-46.18 23.39 -46.18 23.39 -44.06 25.45 C-43.44 26.09 -42.82 26.73 -42.18 27.39 C-44.18 31.39 -44.18 31.39 -46.37 32.7 C-51.33 33.91 -54.93 33.07 -59.37 30.64 C-64.06 26.89 -66.93 23.32 -68.18 17.39 C-68.18 9.93 -66.29 4.89 -61.18 -0.61 C-43.73 -14.62 -17.46 -12.77 0 0 Z " fill="#fbbb21" transform="translate(448.18359375,86.61328125)"/>
<path d="M0 0 C14.01 10.41 22.6 28.91 25.54 45.89 C26.67 57.49 25.24 67.05 18.41 76.64 C11.44 84.79 2.05 89.41 -7.52 93.89 C-8.69 94.44 -9.86 94.99 -11.06 95.56 C-21.44 100.47 -31.89 105.22 -42.36 109.95 C-52.37 114.47 -62.35 119.06 -72.31 123.68 C-86.15 130.1 -100.03 136.43 -113.96 142.64 C-114.33 142.8 -114.33 142.8 -116.18 143.63 C-161.58 163.89 -161.58 163.89 -178.99 157.91 C-195.21 151.16 -202.83 138.33 -209.85 122.82 C-213.51 113.38 -214.4 102.23 -210.96 92.57 C-198.97 67.63 -170.73 56.85 -146.86 46.23 C-140.59 43.43 -134.44 40.43 -128.32 37.32 C-121.58 33.92 -114.76 30.67 -107.96 27.39 C-98.79 22.96 -89.65 18.51 -80.56 13.92 C-73.83 10.56 -67.03 7.34 -60.24 4.1 C-55.8 1.98 -51.37 -0.14 -46.99 -2.36 C-31.57 -10.01 -14.51 -9.28 0 0 Z M-45.86 11.58 C-48.93 13.12 -52.02 14.6 -55.11 16.08 C-60.14 18.49 -65.16 20.91 -70.17 23.35 C-76.32 26.34 -82.48 29.31 -88.65 32.26 C-89.56 32.7 -90.46 33.13 -91.4 33.58 C-97.65 36.56 -103.93 39.52 -110.2 42.46 C-124.12 48.98 -138.02 55.54 -151.86 62.22 C-153.44 62.99 -155.03 63.75 -156.61 64.5 C-191.32 81.13 -191.32 81.13 -198.43 96.88 C-202.14 107.71 -197.91 119.22 -193.27 129.14 C-188.82 137.62 -183.82 143.88 -174.46 146.89 C-159.98 151.19 -146.34 143.83 -133.56 137.8 C-127.42 134.92 -121.21 132.22 -115 129.49 C-97.75 121.9 -80.69 113.92 -63.66 105.82 C-57.06 102.69 -50.42 99.62 -43.77 96.57 C-35.14 92.61 -26.54 88.59 -17.96 84.51 C-16.95 84.04 -15.94 83.56 -14.9 83.07 C6.39 72.88 6.39 72.88 10.66 62.05 C14.77 47.28 8.8 34.71 1.95 21.93 C-2.53 14.66 -9.1 8.14 -17.46 5.89 C-28.32 4.47 -36.21 6.72 -45.86 11.58 Z " fill="#0f3726" transform="translate(364.4609375,190.11328125)"/>
<path d="M0 0 C2.23 2.74 3.5 4.87 5 8 C5.5 8.96 5.99 9.92 6.51 10.91 C8.16 14.12 9.74 17.37 11.31 20.62 C11.86 21.73 12.41 22.84 12.98 23.98 C13.5 25.05 14.02 26.12 14.55 27.23 C15.02 28.19 15.49 29.16 15.98 30.15 C17.17 33.48 17.63 35.5 17 39 C13.27 42.84 9.15 45.15 4.35 47.45 C3.1 48.05 1.85 48.65 0.55 49.27 C-0.74 49.88 -2.04 50.49 -3.38 51.12 C-4.02 51.44 -4.02 51.44 -7.28 53 C-26.23 62.05 -26.23 62.05 -32 61 C-36.9 55.66 -39.63 49.09 -42.75 42.62 C-43.35 41.42 -43.95 40.21 -44.57 38.97 C-45.14 37.8 -45.71 36.62 -46.3 35.41 C-46.82 34.35 -47.34 33.29 -47.87 32.19 C-49.2 28.42 -49.63 25.97 -49 22 C-45.05 17.78 -40.19 15.3 -35.04 12.79 C-34.29 12.42 -33.54 12.05 -32.77 11.67 C-31.19 10.9 -29.61 10.13 -28.03 9.36 C-25.63 8.19 -23.24 7 -20.85 5.8 C-19.31 5.05 -17.77 4.29 -16.23 3.54 C-15.52 3.19 -14.82 2.83 -14.09 2.46 C-9.23 0.15 -5.35 -0.62 0 0 Z " fill="#fbefd0" transform="translate(284,239)"/>
<path d="M0 0 C0.36 0.03 0.36 0.03 2.16 0.16 C7.19 1.83 10.01 5.11 12.66 9.57 C12.97 10.24 12.97 10.24 14.56 13.62 C15.25 15.06 15.93 16.5 16.62 17.93 C17.24 19.25 17.86 20.58 18.5 21.94 C19.39 23.69 20.28 25.44 21.19 27.19 C29.65 44.28 29.65 44.28 28.5 51.94 C25.46 60.67 19.88 63.76 11.8 67.78 C8.28 69.44 4.72 71.05 1.16 72.63 C-1.06 73.63 -3.29 74.63 -5.51 75.63 C-27.21 85.41 -27.21 85.41 -35.5 82.94 C-43.7 78.81 -46.83 70.01 -50.46 62.1 C-51.5 59.95 -52.61 57.88 -53.78 55.8 C-58.16 47.9 -62.09 40.09 -59.5 30.94 C-55.68 23.69 -50.05 20.48 -42.88 17 C-41.87 16.49 -40.86 15.99 -39.83 15.47 C-7.3 -0.73 -7.3 -0.73 0 0 Z M-16.23 15.73 C-17.03 16.12 -17.84 16.51 -18.66 16.92 C-20.34 17.74 -22.02 18.57 -23.69 19.41 C-26.25 20.69 -28.82 21.94 -31.39 23.19 C-33.02 23.99 -34.66 24.8 -36.3 25.61 C-36.68 25.8 -36.68 25.8 -38.61 26.74 C-46.18 30.55 -46.18 30.55 -48.5 33.94 C-49.21 39.39 -47.93 42.99 -45.54 47.86 C-44.92 49.13 -44.31 50.4 -43.67 51.71 C-43.02 53.03 -42.36 54.34 -41.69 55.69 C-41.04 57.01 -40.4 58.34 -39.74 59.71 C-34.93 69.51 -34.93 69.51 -31.5 72.94 C-22.95 73.11 -16.06 69.34 -8.5 65.69 C-7.28 65.11 -6.06 64.54 -4.8 63.95 C12.87 55.57 12.87 55.57 17.5 50.94 C18.24 45.75 16.56 42.26 14.29 37.64 C13.96 36.97 13.63 36.29 13.29 35.6 C12.6 34.18 11.9 32.76 11.2 31.35 C10.12 29.19 9.06 27.01 8.01 24.84 C2.82 14.26 2.82 14.26 0.5 11.94 C-6.16 11.26 -10.45 12.82 -16.23 15.73 Z " fill="#0f3726" transform="translate(283.5,227.0625)"/>
<path d="M0 0 C3 3 3 3 3.44 6.38 C2.9 10.79 2.17 11.9 -1 15 C-4.25 16.73 -7.64 18.04 -11.06 19.38 C-30.2 27.23 -44.67 38.78 -55.42 56.58 C-57 59 -57 59 -60 62 C-63 62.44 -63 62.44 -66 62 C-68.77 59.06 -69.01 57.9 -69.5 53.69 C-68.95 37.4 -59.42 22.95 -48 12 C-36.26 2.38 -14.71 -9.93 0 0 Z " fill="#fbefd0" transform="translate(166,162)"/>
<path d="M0 0 C4 2 4 2 4.98 4.21 C5.24 5.11 5.49 6.01 5.75 6.94 C10.76 21.87 22.42 31.07 36 38 C50.09 44.25 64.97 46.18 80.25 46.12 C81.31 46.13 82.36 46.13 83.45 46.14 C90.68 46.13 97.81 45.71 105 45 C104.67 45.99 104.34 46.98 104 48 C81.39 58.06 53.41 57.91 30.25 49.81 C17.33 44.44 6.06 36.1 -0.06 23.25 C-2.55 16.64 -2.88 9.98 -2 3 C-1.34 2.01 -0.68 1.02 0 0 Z " fill="#0f3726" transform="translate(66,374)"/>
<path d="M0 0 C1.32 0.33 2.64 0.66 4 1 C4.95 7.67 3.01 13.08 -0.71 18.48 C-7.59 26.92 -17.07 32.73 -28 34 C-39.78 34.66 -53.15 33.02 -63 26 C-63 25.34 -63 24.68 -63 24 C-61.8 23.96 -60.6 23.93 -59.37 23.89 C-40.25 23.17 -20.47 20.87 -6 7 C-4.88 5.68 -3.77 4.35 -2.69 3 C-1.8 2.01 -0.91 1.02 0 0 Z " fill="#0f3726" transform="translate(450,128)"/>
<path d="M0 0 C2.31 1.56 2.31 1.56 4 4 C4.56 7.5 4.56 7.5 4 11 C1.88 13.5 1.88 13.5 -1 15 C-4.51 15 -6.24 14.63 -8.94 12.38 C-10.5 8.89 -9.99 6.64 -9 3 C-6.3 0.01 -3.96 -0.69 0 0 Z " fill="#0f3726" transform="translate(329,247)"/>
<path d="M0 0 C2.44 2.06 2.44 2.06 4 5 C3.94 8.69 3.94 8.69 3 12 C-0.69 14.46 -2.63 14.39 -7 14 C-10 11 -10 11 -10.44 7.56 C-10 4 -10 4 -8.38 1.56 C-5.26 -0.48 -3.66 -0.69 0 0 Z " fill="#0f3726" transform="translate(351,237)"/>
<path d="M0 0 C2.44 2.06 2.44 2.06 4 5 C3.94 8.69 3.94 8.69 3 12 C-0.69 14.46 -2.63 14.39 -7 14 C-10 11 -10 11 -10.44 7.56 C-10 4 -10 4 -8.38 1.56 C-5.26 -0.48 -3.66 -0.69 0 0 Z " fill="#0f3726" transform="translate(319,223)"/>
<path d="M0 0 C2.94 1 2.94 1 4.88 2.69 C6.34 5.87 5.93 7.68 4.94 11 C3.95 11.99 2.96 12.98 1.94 14 C-1.85 13.93 -4.17 13.79 -7.06 11.25 C-8.38 8.29 -8.19 7.02 -7.06 4 C-4.81 0.83 -3.95 0 0 0 Z " fill="#0f3726" transform="translate(189.0625,284)"/>
<path d="M0 0 C4.06 0.38 4.06 0.38 6.12 2 C7.41 5.25 7.12 7.07 6.06 10.38 C4.38 12.31 4.38 12.31 2.06 13.38 C-2.5 13.19 -3.62 12.69 -6.94 9.38 C-6.62 3.38 -6.43 0.61 0 0 Z " fill="#0f3726" transform="translate(197.9375,307.625)"/>
<path d="M0 0 C2.79 1.98 3.83 3.13 4.5 6.5 C3.83 9.87 2.79 11.02 0 13 C-3.37 13.49 -5.29 13.33 -8.38 11.88 C-10 10 -10 10 -10.5 7.06 C-10 4 -10 4 -8.38 1.62 C-5.29 -0.49 -3.67 -0.61 0 0 Z " fill="#0f3726" transform="translate(340,213)"/>
<path d="M0 0 C2.56 2.22 2.95 3.65 3.44 7 C3 10 3 10 1.31 12.38 C-1 14 -1 14 -3.5 14.5 C-6.87 13.83 -8.02 12.79 -10 10 C-10.61 6.33 -10.49 4.71 -8.38 1.62 C-5.31 -0.47 -3.65 -0.62 0 0 Z " fill="#0f3726" transform="translate(223,297)"/>
<path d="M0 0 C3.06 0.44 3.06 0.44 5.44 2.12 C7.06 4.44 7.06 4.44 7.56 6.94 C7.06 9.44 7.06 9.44 5.5 11.81 C3.06 13.44 3.06 13.44 -0.56 13.31 C-3.94 12.44 -3.94 12.44 -5.94 10.44 C-6.25 7 -6.25 7 -5.94 3.44 C-2.94 0.44 -2.94 0.44 0 0 Z " fill="#0f3726" transform="translate(208.9375,273.5625)"/>
</svg>
