<?xml version="1.0" encoding="UTF-8"?>
<!-- Generated by @neplex/vectorizer (Using visioncortex VTracer) -->
<svg xmlns="http://www.w3.org/2000/svg" width="474" height="512" viewBox="2 2 474 512" preserveAspectRatio="xMidYMid meet">
<path d="M0 0 C3.67 1.81 5.74 4.58 8.16 7.78 C8.41 8.11 8.41 8.11 9.71 9.78 C28.73 34.51 28.73 34.51 28.41 38.64 C27.49 41.63 26.19 43.94 24.53 46.59 C23.98 47.48 23.44 48.36 22.87 49.27 C22.45 49.93 22.03 50.6 21.59 51.28 C22.98 51.57 24.36 51.86 25.78 52.16 C29.23 52.88 32.35 53.91 35.59 55.28 C35.65 54.51 35.71 53.74 35.78 52.95 C35.86 51.94 35.94 50.94 36.03 49.91 C36.07 49.41 36.07 49.41 36.28 46.88 C36.59 44.28 36.59 44.28 37.59 42.28 C50.48 43.08 63.78 53.66 73.59 61.28 C74.63 62.04 75.66 62.79 76.72 63.57 C77.65 64.3 78.58 65.03 79.53 65.78 C80.34 66.41 81.16 67.04 82 67.69 C84.51 71.78 83.41 75.7 82.59 80.28 C83.58 80.01 84.56 79.75 85.57 79.47 C89.26 78.47 92.94 77.48 96.63 76.49 C98.21 76.06 99.8 75.63 101.39 75.2 C103.68 74.58 105.98 73.96 108.28 73.35 C109.65 72.98 111.03 72.6 112.45 72.22 C116.88 71.22 121.07 70.63 125.59 70.28 C125.92 70.61 126.25 70.94 126.59 71.28 C126.39 79.33 123.02 86.22 119.91 93.53 C119.39 94.78 118.87 96.02 118.34 97.31 C115.06 105.13 111.49 112.75 107.59 120.28 C108.79 120.26 109.99 120.24 111.22 120.22 C113.97 120.58 115.25 120.94 117.25 122.89 C118.89 125.29 120.26 127.7 121.59 130.28 C122.13 131.32 122.67 132.35 123.23 133.42 C125.73 138.54 127.54 142.81 128.16 148.48 C128.65 151.08 128.65 151.08 129.59 153.28 C132.59 155.32 135.76 155.9 139.28 156.59 C141.19 157.05 143.09 157.5 144.99 157.96 C145.46 158.07 145.46 158.07 147.85 158.62 C151.8 159.57 155.57 160.84 159.41 162.16 C160.61 162.57 161.81 162.98 163.05 163.4 C163.47 163.54 163.47 163.54 165.59 164.28 C165.09 168.75 163.6 170.81 160.53 174.03 C160.13 174.47 160.13 174.47 158.12 176.66 C156.47 178.38 154.76 180.04 153.01 181.65 C150.79 183.78 149.01 185.55 147.59 188.28 C149.38 191.92 150.77 193.51 153.59 196.28 C155.41 198.3 157.2 200.34 158.97 202.41 C159.84 203.38 160.72 204.35 161.62 205.35 C163.98 208.86 164.36 210.14 163.59 214.28 C162.11 217.21 160.61 219.85 158.84 222.59 C158.36 223.37 157.87 224.15 157.37 224.95 C152.08 233.27 146.36 241.28 140.59 249.28 C139.93 250.27 139.27 251.26 138.59 252.28 C139.65 252.6 140.71 252.91 141.8 253.23 C143.18 253.66 144.55 254.09 145.97 254.53 C147.34 254.95 148.71 255.37 150.12 255.8 C153.59 257.28 153.59 257.28 155.59 261.28 C154.26 264.23 154.26 264.23 152.22 267.41 C148.59 273.13 148.59 273.13 148.59 275.28 C149.93 276.38 151.31 277.41 152.72 278.41 C157.35 281.9 160.4 285.45 163.59 290.28 C163.59 290.94 163.59 291.6 163.59 292.28 C161.28 291.95 158.97 291.62 156.59 291.28 C157.05 291.96 157.51 292.64 157.98 293.34 C164.17 302.72 168.69 311.6 168.84 323.03 C168.87 324.2 168.9 325.37 168.92 326.58 C168.59 330.28 168.59 330.28 166.76 334.16 C165.5 338.6 165.46 338.95 167.54 342.7 C168.57 344.31 169.64 345.9 170.72 347.47 C171.85 349.22 172.97 350.98 174.09 352.73 C174.67 353.64 175.25 354.54 175.85 355.47 C178.73 360.11 181.3 364.89 183.84 369.72 C184.32 370.6 184.8 371.48 185.29 372.39 C185.73 373.22 186.16 374.05 186.61 374.9 C186.99 375.63 187.38 376.35 187.77 377.1 C188.74 379.68 188.88 381.55 188.59 384.28 C168.13 409.32 126.5 431.52 95.18 436.69 C92.18 437.18 89.29 437.8 86.34 438.53 C82.59 439.28 82.59 439.28 78.59 438.28 C75.84 438.59 75.84 438.59 72.67 439.21 C71.49 439.43 70.32 439.64 69.1 439.87 C67.84 440.11 66.58 440.35 65.28 440.59 C27.09 447.4 -12.43 447.27 -50.81 441.65 C-53.65 441.36 -56.18 441.31 -59.01 441.39 C-65.46 441.44 -71.52 440.06 -77.78 438.66 C-79.01 438.38 -80.25 438.11 -81.52 437.83 C-114 430.49 -154.9 417.48 -175.41 389.28 C-174.76 379.66 -165.41 370.51 -159.74 363.32 C-158.97 362.32 -158.2 361.32 -157.41 360.28 C-156.61 359.25 -155.81 358.21 -154.98 357.14 C-154.46 356.2 -153.94 355.25 -153.41 354.28 C-154.07 352.96 -154.73 351.64 -155.41 350.28 C-155.3 349.44 -155.2 348.59 -155.09 347.72 C-155.2 346.91 -155.3 346.11 -155.41 345.28 C-156.41 344.99 -157.41 344.69 -158.45 344.39 C-164.49 341.17 -166.74 336 -170.03 330.16 C-170.67 329.05 -171.32 327.95 -171.98 326.81 C-173.23 324.65 -174.47 322.48 -175.7 320.3 C-176.78 318.4 -177.87 316.5 -178.98 314.61 C-181.17 310.86 -182.41 308.71 -182.41 304.28 C-176.89 304.26 -171.37 304.24 -165.85 304.23 C-163.98 304.22 -162.1 304.21 -160.22 304.21 C-157.52 304.19 -154.83 304.19 -152.13 304.18 C-151.29 304.18 -150.45 304.17 -149.58 304.17 C-143.63 304.17 -143.63 304.17 -141.41 305.28 C-141.54 304.23 -141.67 303.17 -141.81 302.08 C-142.87 293.31 -143.72 284.53 -144.28 275.72 C-144.35 274.8 -144.43 273.87 -144.5 272.93 C-144.65 270.34 -144.65 270.34 -144.41 266.28 C-139.55 265.07 -138.49 265.86 -134.11 268.03 C-132.9 268.62 -131.7 269.21 -130.46 269.81 C-129.2 270.44 -127.95 271.07 -126.66 271.72 C-125.39 272.34 -124.12 272.97 -122.81 273.61 C-119.67 275.16 -116.54 276.71 -113.41 278.28 C-112.75 277.04 -112.09 275.79 -111.41 274.51 C-111.22 274.16 -111.22 274.16 -110.28 272.39 C-108.88 269.02 -109.39 266.71 -110.41 263.28 C-111.09 262.37 -111.77 261.47 -112.47 260.53 C-115.26 255.85 -114.75 251.6 -114.41 246.28 C-114.98 246.55 -114.98 246.55 -117.89 247.89 C-139.37 257.71 -160.92 264.62 -184.41 257.28 C-198.28 251.79 -209.19 243.34 -215.62 229.7 C-220.43 218.26 -220.87 206.95 -216.41 195.28 C-214.45 191.48 -212.15 188.82 -208.66 186.28 C-204.35 184.96 -200.69 185.05 -196.41 186.28 C-191.16 189.47 -188.88 193.72 -185.91 198.89 C-183.84 202.19 -181.73 204.27 -178.41 206.28 C-166.99 205.35 -158.66 197.49 -151.41 189.28 C-150.78 188.6 -150.15 187.93 -149.5 187.23 C-149.14 186.58 -148.78 185.94 -148.41 185.28 C-150.28 181.54 -151.79 179.65 -154.7 176.76 C-155.56 175.9 -156.41 175.05 -157.3 174.16 C-158.2 173.27 -159.1 172.38 -160.03 171.47 C-160.91 170.59 -161.79 169.71 -162.69 168.81 C-167.24 164.3 -171.84 159.91 -176.72 155.77 C-179.3 153.49 -181.43 151.09 -183.41 148.28 C-183.08 147.29 -182.75 146.3 -182.41 145.28 C-179.64 144.09 -176.96 143.08 -174.1 142.14 C-173.27 141.86 -172.43 141.58 -171.57 141.28 C-169.8 140.68 -168.03 140.09 -166.26 139.5 C-163.55 138.6 -160.84 137.68 -158.13 136.76 C-156.41 136.18 -154.69 135.6 -152.98 135.02 C-152.16 134.74 -151.35 134.47 -150.51 134.19 C-147.37 133.15 -144.74 132.28 -141.41 132.28 C-141.02 130.29 -140.63 128.3 -140.25 126.3 C-137.19 115.31 -130.48 105.08 -123.41 96.28 C-122.82 95.55 -122.24 94.81 -121.64 94.05 C-120.29 92.41 -118.86 90.84 -117.41 89.28 C-116.75 89.28 -116.09 89.28 -115.41 89.28 C-115.73 88.45 -116.06 87.62 -116.4 86.77 C-119.99 77.47 -123.23 68.06 -126.34 58.59 C-126.55 57.98 -126.55 57.98 -127.6 54.87 C-127.98 53.7 -128.36 52.53 -128.75 51.33 C-128.92 50.81 -128.92 50.81 -129.79 48.17 C-130.44 45.13 -130.25 43.24 -129.41 40.28 C-123.71 40.85 -118.46 41.97 -113 43.68 C-112.22 43.92 -111.45 44.15 -110.66 44.39 C-109.04 44.89 -107.42 45.39 -105.81 45.89 C-103.35 46.65 -100.89 47.41 -98.43 48.16 C-96.85 48.64 -95.26 49.13 -93.68 49.62 C-92.96 49.84 -92.23 50.06 -91.48 50.29 C-88.06 51.36 -84.87 52.53 -81.62 54.05 C-80.56 54.46 -79.5 54.86 -78.41 55.28 C-75.46 53.96 -73.4 52.77 -70.84 50.91 C-69.44 49.95 -68.02 49.01 -66.61 48.07 C-65.91 47.59 -65.2 47.12 -64.48 46.63 C-55.13 40.55 -42.94 34.07 -31.41 35.28 C-29.2 37.49 -29.66 42.27 -29.34 45.34 C-29.3 45.77 -29.3 45.77 -29.07 47.93 C-28.84 50.05 -28.62 52.16 -28.41 54.28 C-27.33 53.95 -26.26 53.62 -25.16 53.28 C-21.41 52.28 -21.41 52.28 -17.41 52.28 C-17.92 51.77 -18.44 51.27 -18.97 50.74 C-19.63 50.05 -20.29 49.37 -20.97 48.66 C-21.63 47.98 -22.29 47.31 -22.97 46.62 C-24.94 43.42 -24.25 41.88 -23.41 38.28 C-22.33 35.73 -22.33 35.73 -21 33.19 C-20.51 32.25 -20.02 31.31 -19.51 30.33 C-19.24 29.84 -19.24 29.84 -17.91 27.34 C-17.64 26.84 -17.64 26.84 -16.27 24.27 C-14.66 21.27 -13.04 18.27 -11.41 15.28 C-10.96 14.44 -10.5 13.6 -10.04 12.73 C-8.87 10.57 -7.68 8.42 -6.47 6.28 C-5.8 5.09 -5.13 3.89 -4.44 2.66 C-2.41 0.28 -2.41 0.28 0 0 Z M-69.53 92.72 C-69.82 92.99 -69.82 92.99 -71.31 94.39 C-82.12 104.63 -91.24 116.1 -96.41 130.28 C-96.08 131.27 -95.75 132.26 -95.41 133.28 C-83.95 122.74 -75.31 110.26 -66.66 97.41 C-66.13 96.63 -65.6 95.85 -65.06 95.04 C-61.41 89.53 -61.41 89.53 -61.41 87.28 C-64.9 87.28 -67.1 90.43 -69.53 92.72 Z " fill="#090a0d" transform="translate(254.40625,34.71875)"/>
<path d="M0 0 C2.27 2.2 4.24 4.46 6.2 6.94 C6.54 7.36 6.54 7.36 8.3 9.5 C9.8 11.32 11.28 13.15 12.75 14.98 C18.87 22.38 25.52 29.34 32.38 36.06 C36.5 40.13 40.16 44.43 43.78 48.95 C46.54 52.36 49.39 55.68 52.26 59 C56.27 63.66 60.2 68.37 64.01 73.19 C66.28 76.04 68.57 78.86 70.88 81.68 C76.39 88.42 81.8 95.23 87.07 102.17 C88.51 104.04 90 105.88 91.54 107.68 C92.08 108.42 92.63 109.17 93.2 109.94 C92.87 110.6 92.54 111.26 92.2 111.94 C91.57 111.3 90.94 110.66 90.29 110 C85.8 105.46 81.29 101.05 76.45 96.91 C74.11 94.86 71.83 92.75 69.56 90.63 C63.31 84.8 56.92 79.22 50.2 73.94 C49.57 73.45 48.95 72.96 48.3 72.45 C38.57 64.81 28.67 57.54 18.2 50.94 C17.59 50.54 17.59 50.54 14.52 48.54 C13.42 48.01 12.32 47.48 11.2 46.94 C-0.63 52.85 -10.28 64.98 -18.8 74.94 C-19.82 76.1 -20.83 77.26 -21.85 78.42 C-28 85.47 -34.07 92.54 -39.8 99.94 C-40.26 100.53 -40.72 101.12 -41.19 101.72 C-59.66 125.52 -76.83 150.11 -92.11 176.09 C-92.7 177.09 -93.28 178.09 -93.89 179.12 C-94.41 180 -94.92 180.89 -95.45 181.8 C-96.8 183.94 -96.8 183.94 -98.8 185.94 C-97.05 176.11 -94.33 166.55 -91.68 156.94 C-90.98 154.39 -90.28 151.84 -89.58 149.28 C-89.15 147.7 -88.71 146.13 -88.28 144.55 C-86.8 139.16 -86.8 139.16 -86.8 136.94 C-93.48 149.14 -98.72 162.31 -102.47 175.7 C-102.6 176.16 -102.6 176.16 -103.26 178.49 C-103.74 180.26 -104.2 182.03 -104.64 183.8 C-105.29 186.2 -105.29 186.2 -106.8 189.94 C-110.06 191.69 -111.77 190.95 -115.33 190.01 C-116.6 189.55 -117.87 189.1 -119.18 188.62 C-123.02 187.26 -126.76 185.95 -130.72 184.96 C-131.74 184.62 -132.76 184.28 -133.8 183.94 C-134.13 182.95 -134.46 181.96 -134.8 180.94 C-133.63 178.61 -133.63 178.61 -131.83 175.9 C-131.18 174.92 -130.53 173.94 -129.85 172.93 C-127.39 169.33 -124.89 165.76 -122.36 162.22 C-112.41 148.24 -103.57 133.68 -94.8 118.94 C-92.75 115.5 -90.68 112.05 -88.62 108.61 C-87.37 106.53 -86.13 104.45 -84.89 102.37 C-81.41 96.54 -77.82 90.81 -74.09 85.14 C-72.8 82.94 -72.8 82.94 -72.8 80.94 C-87.87 97.75 -101.45 115.7 -113.47 134.81 C-114.56 136.53 -115.68 138.24 -116.8 139.94 C-117.13 139.94 -117.46 139.94 -117.8 139.94 C-117.2 133.65 -116.21 127.63 -114.81 121.48 C-114.61 120.61 -114.42 119.73 -114.22 118.84 C-113.61 116.08 -112.99 113.32 -112.37 110.56 C-111.55 106.93 -110.74 103.3 -109.93 99.66 C-109.74 98.8 -109.55 97.94 -109.35 97.06 C-108.02 91.04 -106.84 85.01 -105.8 78.94 C-106.46 78.94 -107.12 78.94 -107.8 78.94 C-108.3 80.94 -108.77 82.94 -109.17 84.96 C-109.91 88.41 -110.8 91.8 -111.72 95.2 C-112.09 96.55 -112.45 97.91 -112.83 99.3 C-113.21 100.73 -113.6 102.15 -113.99 103.62 C-118.29 119.65 -122.15 135.75 -125.8 151.94 C-128.8 150.94 -128.8 150.94 -130.67 147.58 C-131.35 146.12 -132.02 144.66 -132.68 143.19 C-132.85 142.81 -132.85 142.81 -133.74 140.88 C-141.8 123.07 -141.8 123.07 -141.8 117.94 C-142.46 117.94 -143.12 117.94 -143.8 117.94 C-143.89 119.32 -143.97 120.7 -144.05 122.12 C-145.39 134.81 -150.21 148.54 -159.51 157.56 C-163.4 160.36 -167.34 162.43 -171.68 164.44 C-172.52 164.83 -173.35 165.21 -174.22 165.62 C-192.72 174.02 -213.07 179.37 -233.02 172.89 C-246.67 167.57 -256.55 159.56 -262.89 146.2 C-266.12 138.17 -266.32 126.92 -263.79 118.6 C-261.85 114.63 -260.52 112.42 -256.8 109.94 C-252.71 109.54 -249.87 109.38 -246.18 111.31 C-243.34 114.45 -241.39 117.79 -239.3 121.45 C-237.41 124.6 -235.25 127.21 -232.8 129.94 C-235.8 131.94 -235.8 131.94 -238.8 131.94 C-238.8 132.6 -238.8 133.26 -238.8 133.94 C-237.61 133.56 -236.42 133.19 -235.19 132.81 C-233.63 132.33 -232.06 131.85 -230.49 131.38 C-230.1 131.25 -230.1 131.25 -228.11 130.63 C-222.14 128.82 -222.14 128.82 -218.8 129.94 C-220.78 132.25 -222.76 134.56 -224.8 136.94 C-223.15 135.52 -221.5 134.11 -219.85 132.69 C-218.57 131.59 -217.28 130.51 -215.98 129.44 C-207.62 122.43 -200.39 114.18 -193.59 105.69 C-188.81 99.82 -183.62 94.49 -178.24 89.19 C-177.35 88.29 -176.45 87.4 -175.53 86.48 C-171.06 82.03 -166.52 77.72 -161.73 73.61 C-141.59 56.14 -125.11 37.05 -111.31 14.26 C-102.24 -0.71 -89.79 -11.16 -72.33 -15.71 C-51.06 -18.7 -17.82 -13.1 0 0 Z " fill="#304e91" transform="translate(304.8046875,115.0625)"/>
<path d="M0 0 C0.33 0.66 0.66 1.32 1 2 C0.29 4.06 0.29 4.06 -0.87 6.57 C-1.08 7.02 -1.08 7.02 -2.11 9.29 C-2.55 10.22 -2.99 11.16 -3.44 12.12 C-3.87 13.07 -4.31 14.01 -4.75 14.99 C-5.83 17.33 -6.91 19.67 -8 22 C-4.71 22 -2.69 19.81 -0.06 17.94 C8.74 11.78 8.74 11.78 13.12 8.88 C13.99 8.29 14.86 7.71 15.76 7.12 C18 6 18 6 21 7 C16.79 11.88 12.48 16.62 8.06 21.31 C2.87 26.89 -1.79 32.64 -6 39 C-6.59 39.89 -7.19 40.77 -7.8 41.68 C-14.55 52.46 -18.65 64.78 -22 77 C-17.57 73.72 -13.2 70.38 -8.88 66.95 C7.43 54 7.43 54 11 54 C11 54.99 11 55.98 11 57 C10.01 57 9.02 57 8 57 C7.48 58.99 6.98 61 6.6 63.03 C5.9 66.48 5 69.86 4.08 73.26 C3.72 74.61 3.35 75.97 2.98 77.36 C2.59 78.79 2.21 80.22 1.81 81.69 C-2.48 97.71 -6.35 113.81 -10 130 C-13 129 -13 129 -14.87 125.64 C-15.55 124.18 -16.22 122.72 -16.88 121.25 C-17.22 120.49 -17.57 119.72 -17.93 118.94 C-26 101.13 -26 101.13 -26 96 C-26.66 96 -27.32 96 -28 96 C-28.08 97.38 -28.17 98.76 -28.25 100.19 C-29.59 112.87 -34.41 126.6 -43.7 135.62 C-47.59 138.43 -51.54 140.49 -55.88 142.5 C-56.71 142.89 -57.55 143.28 -58.41 143.68 C-76.91 152.08 -97.27 157.43 -117.21 150.96 C-130.87 145.64 -140.74 137.63 -147.09 124.26 C-150.32 116.23 -150.51 104.98 -147.99 96.66 C-146.05 92.69 -144.72 90.48 -141 88 C-136.9 87.6 -134.06 87.44 -130.38 89.38 C-127.54 92.51 -125.58 95.85 -123.49 99.52 C-121.6 102.66 -119.44 105.27 -117 108 C-120 110 -120 110 -123 110 C-123 110.66 -123 111.32 -123 112 C-121.81 111.63 -120.62 111.25 -119.39 110.87 C-117.82 110.39 -116.25 109.91 -114.69 109.44 C-114.29 109.31 -114.29 109.31 -112.31 108.69 C-106.34 106.89 -106.34 106.89 -103 108 C-104.98 110.31 -106.96 112.62 -109 115 C-107.35 113.59 -105.69 112.17 -104.04 110.75 C-102.76 109.65 -101.48 108.57 -100.18 107.5 C-91.82 100.49 -84.59 92.25 -77.78 83.75 C-73.01 77.88 -67.82 72.56 -62.44 67.25 C-61.54 66.36 -60.65 65.46 -59.73 64.54 C-55.25 60.1 -50.71 55.79 -45.93 51.67 C-28.2 36.3 -12.93 19.6 0 0 Z " fill="#22396f" transform="translate(189,137)"/>
<path d="M0 0 C0 0.99 0 1.98 0 3 C1.02 3 2.03 3.01 3.08 3.01 C14.37 3.33 22.55 5.39 31.25 12.75 C33 15 33 15 33 17 C30.36 16.67 27.72 16.34 25 16 C25.66 16.81 26.33 17.62 27.01 18.46 C35.29 28.84 41.18 38.12 41.06 51.75 C41.05 53.11 41.04 54.46 41.04 55.86 C41.03 56.38 41.03 56.38 41 59 C37 57 37 57 33.94 54.94 C31 53 31 53 28 52 C27.97 52.44 27.97 52.44 27.81 54.69 C26.07 63.92 22.29 74.82 16 82 C15.5 81.84 15.5 81.84 13 81 C13 79.68 13 78.36 13 77 C12.34 77 11.68 77 11 77 C10.95 77.43 10.95 77.43 10.69 79.61 C8.71 89.32 1.87 99 -5 106 C-5.66 106 -6.32 106 -7 106 C-6.67 101.71 -6.34 97.42 -6 93 C-6.66 93 -7.32 93 -8 93 C-8.71 94.65 -9.37 96.32 -10 98 C-15.41 107.34 -22.07 114.94 -31 121 C-31.66 121 -32.32 121 -33 121 C-32.34 118.69 -31.68 116.38 -31 114 C-31.3 114.19 -31.3 114.19 -32.84 115.17 C-47.27 124.14 -60.92 127.41 -78 126 C-81.33 125.04 -83.16 124.05 -86 122 C-86 121.34 -86 120.68 -86 120 C-84.26 118.55 -82.52 117.11 -80.73 115.73 C-78.67 113.67 -77.92 111.74 -77 109 C-77.36 108.98 -77.36 108.98 -79.2 108.85 C-89.53 108.05 -89.53 108.05 -94 106 C-94 105.34 -94 104.68 -94 104 C-91.9 102.6 -89.74 101.28 -87.56 100 C-81.11 96.21 -81.11 96.21 -80 94 C-80.33 94.16 -80.33 94.16 -82 95 C-84.67 95.04 -87.33 95.04 -90 95 C-87.91 90.82 -86.92 89.99 -83.19 87.5 C-78.5 84.2 -74.21 80.68 -70 76.81 C-69.46 76.32 -69.46 76.32 -66.75 73.83 C-64.31 71.32 -62.62 69.08 -61 66 C-63.64 66 -66.28 66 -69 66 C-67.16 55.9 -59.47 45.86 -52 39 C-51.34 39 -50.68 39 -50 39 C-50 38.34 -50 37.68 -50 37 C-53.63 37.66 -57.26 38.32 -61 39 C-55.54 28.09 -42.47 21.36 -31.5 17 C-25.54 15.22 -19.15 15.76 -13 16 C-13 15.34 -13 14.68 -13 14 C-15.31 13.26 -17.65 12.59 -20 12 C-14.93 6.44 -7.91 0 0 0 Z " fill="#9dd8f1" transform="translate(378,306)"/>
<path d="M0 0 C8.82 1.81 17.17 4.47 25 9 C25 9.66 25 10.32 25 11 C22.69 11 20.38 11 18 11 C18 11.66 18 12.32 18 13 C18.72 13.29 19.45 13.57 20.2 13.87 C28.13 17.06 35.72 25.69 40 33 C39.84 33.33 39.84 33.33 39 35 C36.32 34.75 33.65 34.42 31 34 C36.77 40.16 43.39 45.53 50.62 49.88 C51.74 50.58 52.85 51.28 54 52 C54 52.66 54 53.32 54 54 C50.01 56 48.3 56.2 44 56 C48.13 60.57 52.69 63.51 57.94 66.62 C58.72 67.1 59.51 67.58 60.32 68.07 C64.47 70.57 68.63 72.91 73 75 C72.84 75.5 72.84 75.5 72 78 C68.94 78.69 68.94 78.69 66 79 C66 79.66 66 80.32 66 81 C68.49 81.77 71.02 82.41 73.56 83 C78.75 84.22 83.89 85.5 89 87 C85.61 90.59 82.24 93.46 78 96 C77.34 96 76.68 96 76 96 C76 96.66 76 97.32 76 98 C76.98 98.1 77.97 98.19 78.98 98.29 C83.41 99.07 87.23 100.58 91.31 102.38 C102.55 107.12 111.75 109.49 124 110 C124 110.99 124 111.98 124 113 C112.04 124.38 95.24 128.45 79.27 128.19 C72.39 127.79 66.34 125.49 60 123 C60.33 123.39 60.33 123.39 62 125.38 C64 128 64 128 64 130 C53.66 130.92 45.05 125.96 37 120 C37.52 122.76 38.11 125.33 39 128 C28.32 127.76 20.11 119.74 13.11 112.44 C7 105.37 7 105.37 7 101 C6.34 101 5.68 101 5 101 C5 103.31 5 105.62 5 108 C-4.54 103.23 -11.61 91.73 -14.94 81.81 C-15.29 80.55 -15.64 79.3 -16 78 C-13.02 77.28 -10.77 77.02 -7.69 77.29 C-2.87 76.91 -1.37 75.34 2 71.94 C2.48 71.47 2.48 71.47 4.94 69.09 C7 66 7 66 6.88 62.29 C6 59 6 59 4.94 56.5 C2.56 50.17 4.53 44.93 7 38.94 C10.65 30.08 10.65 30.08 10 25 C8.83 22.4 8.83 22.4 7.25 19.94 C6.71 19.07 6.16 18.2 5.6 17.31 C4 15 4 15 1.62 12.5 C-0.92 8.58 -0.32 4.55 0 0 Z " fill="#69b8e0" transform="translate(207,331)"/>
<path d="M0 0 C0.08 1.03 0.17 2.06 0.25 3.12 C1.22 8.11 3.42 9.87 7.09 13.2 C9.63 15.59 10.96 17.15 11.12 20.69 C11.08 21.45 11.04 22.21 11 23 C12.03 22.75 13.06 22.5 14.12 22.25 C19.12 21.93 20.22 22.75 24 26 C33.74 35.66 33.74 35.66 34 41 C33.67 41.33 33.67 41.33 32 43 C26.77 42.67 24.11 39.77 20.38 36.4 C18 35 18 35 15.23 34.96 C10.85 36.37 7.46 38.7 3.69 41.31 C-10.41 51 -10.41 51 -16 51 C-16 51.66 -16 52.32 -16 53 C-15.11 53.27 -14.23 53.54 -13.31 53.81 C-8.52 55.53 -6.08 58.57 -3.06 62.56 C-0.58 65.49 1.57 67.25 5 69 C11.71 69.27 18.5 65.64 24 62 C26.44 58.77 27.39 56.2 27.69 52.19 C27.79 50.81 27.89 49.42 28 48 C29.32 48 30.64 48 32 48 C33.05 50.82 33.05 50.82 33.75 54.56 C33.99 55.78 34.23 57 34.48 58.25 C34.99 61.93 35.26 65.3 35 69 C32.45 72.18 30.48 73.76 26.4 74.42 C24.49 74.56 22.59 74.67 20.68 74.75 C17.11 75.08 14.27 76.59 11 78 C6.94 77.76 3.73 76.53 0 75 C0.4 75.8 0.8 76.59 1.21 77.41 C2.8 80.61 4.4 83.8 6 87 C6.55 88.01 7.11 89.02 7.68 90.06 C10.67 96.72 9.38 104.29 7 111 C4 110 4 110 1.81 106.12 C0.47 103.39 0 102.11 0 99 C-0.66 99 -1.32 99 -2 99 C-1.96 100.24 -1.92 101.48 -1.88 102.75 C-1.86 108.62 -2.91 114.25 -4 120 C-8 119 -8 119 -9.27 117.22 C-12 111.22 -12 111.22 -12 109 C-12.66 109 -13.32 109 -14 109 C-14.03 109.35 -14.03 109.35 -14.18 111.12 C-14.27 112.03 -14.35 112.94 -14.44 113.88 C-14.52 114.78 -14.6 115.68 -14.68 116.62 C-15 119 -15 119 -16 121 C-16.66 121 -17.32 121 -18 121 C-20.47 116.58 -22.07 112.97 -23 108 C-23.66 108 -24.32 108 -25 108 C-25 108.66 -25 109.32 -25 110 C-25.66 110 -26.32 110 -27 110 C-29.53 106.17 -31.18 102.64 -32.5 98.25 C-33.38 95.47 -33.92 94.09 -35.88 91.88 C-38.74 90.7 -40.09 91 -43 92 C-43.83 92.54 -44.65 93.07 -45.5 93.62 C-48 95 -48 95 -50.5 95 C-54.3 93.48 -55.69 92.49 -58 89 C-58.19 85.44 -58.06 81.94 -57.93 78.38 C-58.04 73.15 -60.03 70.04 -63.6 66.35 C-66.85 62.96 -67.92 61.44 -68.75 56.62 C-68.29 49.73 -63.69 44.69 -59 40 C-58.19 36.93 -58.19 36.93 -57.56 33.31 C-55.17 21.49 -50.09 14.18 -40.29 7.02 C-37.57 5.24 -34.82 3.6 -32 2 C-31.33 1.56 -30.66 1.13 -29.97 0.68 C-21.98 -3.85 -8.02 -4.01 0 0 Z " fill="#faefd7" transform="translate(171,325)"/>
<path d="M0 0 C17.45 5.31 33.47 20.79 47.01 32.45 C49.86 34.88 52.76 37.23 55.69 39.56 C60.33 43.33 64.51 47.41 68.68 51.68 C70.64 53.64 72.63 55.46 74.75 57.25 C78.74 60.67 82.46 64.35 86.19 68.06 C86.78 68.65 87.38 69.24 87.99 69.85 C89.68 71.55 91.34 73.27 93 75 C93.99 75.99 94.97 76.98 95.99 78 C98 81 98 81 98.17 84.33 C96.64 89.13 94.24 92.69 91.31 96.75 C90.73 97.57 90.15 98.4 89.56 99.25 C87.72 101.84 85.86 104.42 84 107 C83.41 107.82 82.83 108.63 82.22 109.48 C62.48 136.95 62.48 136.95 53 146 C52.67 145.34 52.34 144.68 52 144 C53.03 141.29 54.13 138.74 55.38 136.12 C55.74 135.36 56.1 134.59 56.48 133.79 C59.31 128.01 62.7 123.06 66.71 118.02 C71.01 112.35 74.47 106.17 78 100 C78.7 98.79 79.4 97.58 80.12 96.33 C85.76 86.28 85.76 86.28 85 82 C82.84 79.39 80.71 77.1 78.28 74.76 C77.59 74.07 76.9 73.38 76.19 72.68 C73.97 70.48 71.73 68.3 69.5 66.12 C68.02 64.67 66.55 63.21 65.08 61.75 C58.54 55.29 51.96 48.99 45 43 C43.99 42.12 42.98 41.24 41.94 40.33 C33.57 33.16 24.94 26.44 16 20 C14.92 19.21 13.83 18.43 12.71 17.62 C11.76 16.96 10.8 16.3 9.81 15.62 C9.4 15.34 9.4 15.34 7.33 13.91 C5 13 5 13 2.5 13.55 C-0.44 15.25 -2.51 17.18 -4.88 19.62 C-5.75 20.52 -6.62 21.42 -7.52 22.35 C-10.16 25.17 -12.73 28.03 -15.24 30.96 C-17.2 33.23 -19.22 35.42 -21.25 37.62 C-25.79 42.66 -29.97 47.95 -34.12 53.31 C-36.02 55.76 -37.95 58.19 -39.91 60.6 C-57.04 81.67 -71.88 104.21 -85.59 127.64 C-86.6 129.33 -87.64 130.99 -88.72 132.63 C-88.99 133.07 -88.99 133.07 -90.41 135.27 C-90.93 136.06 -91.45 136.84 -91.98 137.65 C-93.25 140.58 -93 142.01 -92 145 C-90.16 146.79 -90.16 146.79 -87.62 148.62 C-81.72 153.22 -76.47 158.32 -71.19 163.62 C-70.38 164.44 -69.56 165.25 -68.73 166.08 C-64.29 170.56 -59.87 175.02 -56 180 C-56.33 180.66 -56.66 181.32 -57 182 C-57.57 181.63 -58.14 181.27 -58.73 180.89 C-91.62 159.84 -91.62 159.84 -108.47 150.56 C-111 149 -111 149 -112 147 C-110.75 144.37 -109.44 141.9 -108 139.38 C-107.78 138.98 -107.78 138.98 -106.66 136.99 C-97.24 120.5 -87 104.47 -76 89 C-75.5 88.3 -75.01 87.59 -74.49 86.87 C-63.77 71.74 -52.58 56.99 -40.49 42.93 C-38.21 40.24 -36.01 37.51 -33.81 34.75 C-10.74 6.38 -10.74 6.38 0 0 Z " fill="#c09e7d" transform="translate(314,161)"/>
<path d="M0 0 C11.32 3.77 22.27 31.33 27.75 41.81 C28.43 43.1 29.1 44.38 29.8 45.71 C30.19 46.79 30.59 47.88 31 49 C20.12 70.76 -19.96 89.71 -41.95 97.38 C-44.95 98.31 -47.96 99.2 -51 100 C-53.3 92.45 -54.31 84.94 -55.25 77.12 C-55.47 75.71 -55.69 74.29 -55.91 72.82 C-57.09 62.51 -57.09 62.51 -53.96 58.16 C-51.3 55.8 -51.3 55.8 -48.6 53.89 C-45.84 51.88 -44.11 49.66 -42 47 C-41.34 47 -40.68 47 -40 47 C-39.67 48.98 -39.34 50.96 -39 53 C-32.19 47.61 -26.12 41.4 -22.31 33.5 C-21 31 -21 31 -18.67 30.16 C-10.25 26.51 -5.31 13.73 -2.03 5.6 C-1.33 3.74 -0.66 1.87 0 0 Z " fill="#304e91" transform="translate(408,366)"/>
<path d="M0 0 C2.69 1.38 2.69 1.38 5 3 C6.32 2.67 7.64 2.34 9 2 C12.59 7.39 12.33 14.17 13 20.5 C13.18 21.94 13.37 23.38 13.56 24.86 C13.7 26.24 13.85 27.61 14 29.03 C14.07 29.66 14.07 29.66 14.44 32.86 C14.29 33.9 14.15 34.93 14 36 C11.14 37.88 11.14 37.88 8 39 C7.26 39.28 6.52 39.56 5.76 39.84 C5.08 40.06 4.39 40.28 3.69 40.5 C3.01 40.72 2.33 40.93 1.64 41.16 C0.77 41.43 -0.1 41.71 -1 42 C-2.35 42.48 -3.7 42.97 -5.1 43.46 C-40.77 55.34 -85.13 53.08 -122 49 C-122.83 48.91 -123.66 48.83 -124.51 48.74 C-137.12 47.44 -137.12 47.44 -142 45 C-141.9 41.84 -141.55 39.09 -141 36 C-140.69 33.92 -140.37 31.84 -140.06 29.76 C-139.71 27.55 -139.36 25.34 -139 23.12 C-138.82 22 -138.64 20.87 -138.46 19.71 C-138.37 19.17 -138.37 19.17 -137.94 16.45 C-137.86 15.96 -137.86 15.96 -137.46 13.49 C-137 11 -137 11 -136 8 C-131.77 10.11 -129.8 12.24 -126.78 15.73 C-126.19 16.15 -125.61 16.57 -125 17 C-123.68 16.34 -122.36 15.68 -121 15 C-119.03 16.53 -119.03 16.53 -116.94 18.94 C-109.21 27.14 -100.09 32.58 -89 35 C-88.34 34.67 -87.68 34.34 -87 34 C-87 33.01 -87 32.02 -87 31 C-83.34 31.69 -79.78 32.59 -76.19 33.56 C-71.26 34.8 -67.06 35.57 -62 35 C-61.67 34.01 -61.34 33.02 -61 32 C-58.94 31.74 -58.94 31.74 -56.21 31.88 C-55.72 31.9 -55.72 31.9 -53.19 31.99 C-52.12 32.04 -51.04 32.08 -49.94 32.12 C-32.7 32.46 -18.58 27.79 -4.94 16.94 C-2.08 14.08 -0.51 11.73 1 8 C0.34 8.33 -0.32 8.66 -1 9 C-3.44 9.1 -5.87 9.13 -8.31 9.12 C-9.63 9.13 -10.94 9.13 -12.3 9.13 C-15.37 9.02 -18.07 8.9 -21 8 C-21 7.34 -21 6.68 -21 6 C-18.18 5.25 -18.18 5.25 -14.44 4.56 C-10.2 3.74 -6.88 2.94 -2.94 1.12 C-1.97 0.75 -1 0.38 0 0 Z " fill="#22396f" transform="translate(338,429)"/>
<path d="M0 0 C0.43 1.95 0.43 1.95 0.51 4.47 C0.55 5.37 0.58 6.27 0.62 7.2 C0.64 8.14 0.66 9.09 0.69 10.06 C0.72 11.01 0.76 11.96 0.79 12.94 C0.87 15.29 0.94 17.65 1 20 C1.93 19.71 2.86 19.42 3.82 19.12 C5.05 18.75 6.29 18.38 7.56 18 C8.78 17.63 10 17.26 11.25 16.88 C15.05 15.99 18.13 15.62 22 16 C22.99 16.99 23.98 17.98 25 19 C25 19.66 25 20.32 25 21 C24.03 21.03 23.07 21.05 22.07 21.08 C-2.63 22.15 -27.78 39.83 -45 57 C-54.97 68 -63.3 80.55 -67.44 94.88 C-69.64 102.13 -73.4 107.98 -80 112 C-83.67 110.16 -85.7 108.58 -88.62 105.81 C-92.14 102.54 -95.61 99.9 -99.69 97.38 C-102.18 95.67 -102.18 95.67 -104 94 C-104.63 88.36 -101.5 83 -99 78 C-98.78 77.56 -98.78 77.56 -97.68 75.33 C-94.19 68.58 -90.07 62.67 -85 57 C-84.61 56.39 -84.22 55.79 -83.82 55.16 C-80.97 51.37 -78.92 50.13 -74.16 49.44 C-69.44 49.31 -64.78 49.39 -60.06 49.56 C-58.41 49.6 -56.75 49.63 -55.1 49.66 C-51.06 49.73 -47.03 49.86 -43 50 C-43.15 47.75 -43.31 45.49 -43.46 43.24 C-43.51 42.61 -43.51 42.61 -43.73 39.44 C-43.92 36.99 -44.21 34.55 -44.56 32.12 C-45.1 28.28 -45.38 24.87 -45 21 C-36.2 12.84 -12.87 -4.29 0 0 Z " fill="#ade6fb" transform="translate(221,74)"/>
<path d="M0 0 C10.92 0.19 10.92 0.19 15.25 3.44 C17 6 17 6 17 8 C14.36 7.67 11.72 7.34 9 7 C9.66 7.81 10.33 8.62 11.01 9.46 C19.29 19.84 25.18 29.12 25.06 42.75 C25.05 44.11 25.04 45.46 25.04 46.86 C25.03 47.38 25.03 47.38 25 50 C21 48 21 48 17.94 45.94 C15 44 15 44 12 43 C11.97 43.44 11.97 43.44 11.81 45.69 C10.07 54.92 6.29 65.82 0 73 C-0.5 72.84 -0.5 72.84 -3 72 C-3 70.68 -3 69.36 -3 68 C-3.66 68 -4.32 68 -5 68 C-5.05 68.43 -5.05 68.43 -5.31 70.61 C-7.29 80.32 -14.13 90 -21 97 C-21.66 97 -22.32 97 -23 97 C-22.67 92.71 -22.34 88.42 -22 84 C-22.66 84 -23.32 84 -24 84 C-24.71 85.65 -25.37 87.32 -26 89 C-31.41 98.34 -38.07 105.94 -47 112 C-47.66 112 -48.32 112 -49 112 C-48.34 109.69 -47.68 107.38 -47 105 C-47.3 105.19 -47.3 105.19 -48.84 106.17 C-63.27 115.14 -76.92 118.41 -94 117 C-97.33 116.04 -99.16 115.05 -102 113 C-102 112.34 -102 111.68 -102 111 C-100.26 109.55 -98.52 108.11 -96.73 106.73 C-94.67 104.67 -93.92 102.74 -93 100 C-93.36 99.98 -93.36 99.98 -95.2 99.85 C-105.53 99.05 -105.53 99.05 -110 97 C-110 96.34 -110 95.68 -110 95 C-106.5 94.13 -104.76 94.01 -101.31 94.25 C-93.16 94.36 -85.68 91.46 -78 89 C-75.67 88.32 -73.34 87.65 -71 87 C-72.56 91.28 -74.72 95.06 -77 99 C-46.09 88.19 -46.09 88.19 -40 76 C-40.66 76.33 -40.66 76.33 -44 78 C-44.66 77.84 -44.66 77.84 -48 77 C-47.63 76.67 -47.63 76.67 -45.76 75.02 C-38.36 68.36 -31.6 61.45 -25 54 C-23.99 58.03 -24.14 59.79 -24.94 63.75 C-25.13 64.73 -25.33 65.72 -25.53 66.73 C-25.68 67.48 -25.84 68.23 -26 69 C-15.21 58.16 -8.26 45.94 -3.21 31.64 C-2.53 29.74 -1.77 27.87 -1 26 C-0.34 26 0.32 26 1 26 C2.76 30.11 3.21 33.56 3 38 C7.65 33.35 9.17 28.44 9.38 22 C9.06 13.39 5.56 8.18 0 2 C0 1.34 0 0.68 0 0 Z " fill="#69b8e0" transform="translate(394,315)"/>
<path d="M0 0 C4 2 4 2 6 5 C6.09 7 6.17 9 6.17 11.01 C6.23 20.67 6.23 20.67 8.41 24.42 C11.81 27.44 15.47 29.19 20 29 C22.01 27.69 24.01 26.35 26 25 C28.56 25.03 28.56 25.03 31 26 C32.15 28.44 32.15 28.44 32.94 31.56 C34.96 38.45 38.03 43.03 43.06 48.06 C44.87 49.87 46.18 51.64 47.62 53.75 C48.02 54.29 48.02 54.29 50 57 C50.66 57 51.32 57 52 57 C52.5 56.01 52.99 55.02 53.5 54 C54 53.01 54.49 52.02 55 51 C55.66 51 56.32 51 57 51 C57.64 51.85 58.28 52.69 58.94 53.56 C59.62 54.37 60.3 55.17 61 56 C61.99 55.67 62.98 55.34 64 55 C64.96 52.16 65.53 49.3 66.16 46.37 C66.43 45.59 66.71 44.81 67 44 C67.99 44 68.98 44 70 44 C70.33 44.34 70.33 44.34 72 46.06 C72.33 46.38 72.33 46.38 74 48 C77 47 77 47 78.35 44.34 C81.59 35.69 83.19 28.28 83 19 C83.66 19 84.32 19 85 19 C86.4 21.48 86.4 21.48 87.94 24.75 C90.75 30.71 90.75 30.71 92.57 32.85 C97.37 40.08 93.17 53.11 91.62 61 C91.4 62.2 91.18 63.4 90.95 64.64 C90.02 69.53 89.24 73.52 87 78 C83.87 77.88 83.87 77.88 79.88 77 C79.52 76.92 79.52 76.92 77.7 76.53 C75.46 76.04 73.23 75.52 71 75 C69.75 74.73 68.51 74.46 67.23 74.18 C35.39 66.8 4.68 54.5 -18.84 31.18 C-20 29 -20 29 -19.62 26.35 C-17.33 21.6 -14.3 17.57 -11.12 13.38 C-10.5 12.53 -9.87 11.68 -9.23 10.81 C-2.82 2.22 -2.82 2.22 0 0 Z " fill="#22396f" transform="translate(104,394)"/>
<path d="M0 0 C8.82 1.81 17.17 4.47 25 9 C25 9.66 25 10.32 25 11 C22.69 11 20.38 11 18 11 C18 11.66 18 12.32 18 13 C18.72 13.29 19.45 13.57 20.2 13.87 C28.13 17.06 35.72 25.69 40 33 C39.84 33.33 39.84 33.33 39 35 C36.32 34.75 33.65 34.42 31 34 C36.77 40.16 43.39 45.53 50.62 49.88 C51.74 50.58 52.85 51.28 54 52 C54 52.66 54 53.32 54 54 C50.01 56 48.3 56.2 44 56 C48.13 60.57 52.69 63.51 57.94 66.62 C58.72 67.1 59.51 67.58 60.32 68.07 C64.47 70.57 68.63 72.91 73 75 C72.84 75.5 72.84 75.5 72 78 C68.94 78.69 68.94 78.69 66 79 C66 79.66 66 80.32 66 81 C68.49 81.77 71.02 82.41 73.56 83 C78.75 84.22 83.89 85.5 89 87 C85.61 90.59 82.24 93.46 78 96 C77.34 96 76.68 96 76 96 C76 96.66 76 97.32 76 98 C77.07 98.12 78.14 98.25 79.25 98.38 C83 99 83 99 87 101 C87 101.66 87 102.32 87 103 C75.32 103.82 63.71 100.48 54 94 C54 93.34 54 92.68 54 92 C54.66 92 55.32 92 56 92 C56 91.34 56 90.68 56 90 C55.45 89.88 55.45 89.88 52.69 89.25 C42.69 86.96 34.65 80.54 27 74 C27.35 74.76 27.7 75.53 28.06 76.31 C29 79 29 79 28 82 C16.98 72.3 9.58 59.2 6 45 C6.01 40.63 7.44 37.33 9.12 33.31 C10.33 30.14 10.51 28.4 10 25 C7.73 20.41 5.15 16.21 1.62 12.5 C-0.92 8.58 -0.32 4.55 0 0 Z " fill="#9dd8f1" transform="translate(207,331)"/>
<path d="M0 0 C-5.27 23.7 -19.92 50.69 -40 65 C-51.86 72.08 -67.9 80.07 -82 77 C-92.73 72.25 -100.47 63.69 -105 53 C-106 48.98 -106.24 45.57 -106.31 41.44 C-106.35 40.12 -106.39 38.79 -106.43 37.43 C-106 34 -106 34 -104.23 32.06 C-100.68 30.37 -97.86 30.58 -94 31 C-89.17 33.53 -87.11 37.93 -84.49 42.52 C-82.6 45.66 -80.44 48.27 -78 51 C-81 53 -81 53 -84 53 C-84 53.66 -84 54.32 -84 55 C-82.81 54.63 -81.62 54.25 -80.39 53.87 C-78.82 53.39 -77.25 52.91 -75.69 52.44 C-75.29 52.31 -75.29 52.31 -73.31 51.69 C-67.34 49.89 -67.34 49.89 -64 51 C-65.98 53.31 -67.96 55.62 -70 58 C-68.35 56.59 -66.69 55.17 -65.04 53.75 C-63.76 52.65 -62.48 51.57 -61.18 50.5 C-52.68 43.38 -45.29 34.94 -38.38 26.31 C-30.33 16.45 -23.16 10.01 -11.64 4.69 C-8 3 -8 3 -5.21 1.28 C-3 0 -3 0 0 0 Z " fill="#304e91" transform="translate(150,194)"/>
<path d="M0 0 C4.43 2.22 6.41 4.77 9.19 8.69 C9.41 8.99 9.41 8.99 10.55 10.51 C13.54 14.68 15.17 17.84 15 23 C13.64 26.41 11.81 29.45 9.88 32.56 C9.39 33.39 8.9 34.21 8.4 35.06 C0.55 48.11 0.55 48.11 -8.06 50.44 C-23.21 55.07 -33.57 63.44 -43.16 75.79 C-45.49 78.59 -47.69 80.45 -51 82 C-55.26 81.69 -57.12 80.38 -59.88 77.19 C-60.49 76.5 -61.11 75.81 -61.74 75.11 C-63 73 -63 73 -62 69 C-60.33 67.04 -60.33 67.04 -58.25 65.06 C-57.57 64.41 -56.9 63.77 -56.2 63.1 C-55.48 62.41 -54.75 61.71 -54 61 C-53.64 60.64 -53.64 60.64 -51.82 58.82 C-49.11 56.11 -46.39 53.42 -43.66 50.74 C-40.79 47.91 -37.93 45.07 -35.07 42.24 C-33.58 40.76 -32.08 39.28 -30.58 37.81 C-18.77 26.19 -8.1 14.59 0 0 Z " fill="#304e91" transform="translate(354,271)"/>
<path d="M0 0 C2.46 0.29 2.46 0.29 4.75 1.19 C6.51 3.58 7.56 5.93 8.7 8.67 C10.23 12.33 12.16 15.39 15.75 17.19 C15.75 14.55 15.75 11.91 15.75 9.19 C16.74 9.19 17.73 9.19 18.75 9.19 C20.29 11.31 20.29 11.31 21.94 14.19 C27.13 22.68 33.14 28.27 41.75 33.19 C41.29 32.27 40.84 31.36 40.37 30.41 C39.79 29.23 39.22 28.04 38.62 26.81 C38.04 25.63 37.46 24.45 36.87 23.23 C36.5 22.22 36.13 21.22 35.75 20.19 C36.41 19.53 37.07 18.87 37.75 18.19 C38.62 19.01 39.48 19.84 40.38 20.69 C57.36 35.2 76.21 38.61 97.75 37.19 C103.53 36.42 109.27 35.2 114.75 33.19 C114.75 32.53 114.75 31.87 114.75 31.19 C118.05 31.52 118.05 31.52 134.75 33.19 C134.75 34.18 134.75 35.17 134.75 36.19 C122.79 47.57 105.99 51.64 90.02 51.38 C83.14 50.98 77.09 48.68 70.75 46.19 C71.08 46.58 71.08 46.58 72.75 48.56 C74.75 51.19 74.75 51.19 74.75 53.19 C64.41 54.11 55.8 49.15 47.75 43.19 C48.27 45.95 48.86 48.51 49.75 51.19 C39.07 50.95 30.86 42.93 23.86 35.62 C17.75 28.56 17.75 28.56 17.75 24.19 C17.09 24.19 16.43 24.19 15.75 24.19 C15.75 26.5 15.75 28.81 15.75 31.19 C6.2 26.41 -0.8 14.94 -4.25 5.06 C-4.58 3.78 -4.91 2.5 -5.25 1.19 C-4.25 0.19 -4.25 0.19 0 0 Z " fill="#4495c0" transform="translate(196.25,407.8125)"/>
<path d="M0 0 C3.63 3.24 5.97 6.57 8 11 C8 16.25 6.09 20.28 3.92 24.95 C1.64 30.04 1.56 35.49 2 41 C2.65 42.67 3.31 44.34 4 46 C3.51 51.54 0.67 54.42 -3.18 58.19 C-7.48 60.95 -11.14 60.47 -16.08 59.83 C-19 60 -19 60 -21.39 62.04 C-23.4 65.74 -23.28 67.95 -23 72.12 C-22.8 78.99 -23.45 84.99 -27 91 C-27.5 91.16 -27.5 91.16 -30 92 C-29.67 90.74 -29.34 89.48 -29 88.19 C-26.6 76.9 -28.32 69.99 -34 60 C-35.01 58.01 -36.01 56.01 -37 54 C-36.67 53.83 -36.67 53.83 -35 53 C-33.91 53.5 -32.81 53.99 -31.69 54.5 C-27.86 56.06 -26.77 56.29 -23 55 C-22.24 54.66 -21.48 54.32 -20.7 53.97 C-17.83 52.94 -15.53 52.74 -12.5 52.62 C-8.95 52.34 -7.04 52.02 -3.81 50.38 C-1.27 47.04 -1.52 45.13 -2 41 C-2.66 38.33 -3.32 35.66 -4 33 C-4.12 29.5 -4.12 29.5 -4 27 C-5.32 27 -6.64 27 -8 27 C-7.94 28.38 -7.88 29.76 -7.81 31.19 C-7.85 35.37 -8.13 37.78 -11 41 C-16.41 45.07 -22.57 48.88 -29.44 49.12 C-35.71 47.14 -40.38 42.42 -44 37 C-44 36.34 -44 35.68 -44 35 C-45.98 34.27 -47.98 33.61 -50 33 C-50.66 32.67 -51.32 32.34 -52 32 C-52 31.34 -52 30.68 -52 30 C-49.64 28.72 -47.3 27.57 -44.88 26.44 C-37.77 23.05 -31.43 19.14 -24.99 14.59 C-22 13 -22 13 -19.42 13.03 C-15.59 14.57 -12.64 17.08 -9.4 19.6 C-7 21 -7 21 -3 20 C-3.5 15.6 -5.09 13.29 -8 10 C-7.24 9.28 -6.47 8.56 -5.69 7.81 C-3.29 5.3 -1.65 3.03 0 0 Z " fill="#dfc493" transform="translate(207,346)"/>
<path d="M0 0 C0.99 0 1.98 0 3 0 C4.48 1.55 4.48 1.55 6.04 3.73 C6.62 4.53 7.19 5.33 7.79 6.15 C8.39 7.01 9 7.87 9.62 8.75 C10.88 10.5 12.13 12.24 13.39 13.99 C14 14.85 14.61 15.7 15.24 16.58 C16.77 18.69 18.34 20.75 19.96 22.79 C20.78 23.83 21.59 24.87 22.44 25.94 C23.16 26.83 23.88 27.73 24.62 28.65 C26 31 26 31 25 35 C23.26 38.88 21.23 42.58 19.19 46.31 C18.67 47.35 18.16 48.39 17.63 49.46 C15.96 52.46 14.56 54.72 12 57 C7.65 57.96 4.19 57.42 0 56 C-3.55 53.49 -3.55 53.49 -6.31 50.31 C-12.51 43.43 -12.51 43.43 -16.31 40.56 C-17.2 39.72 -18.09 38.87 -19 38 C-18.74 33.86 -16.94 30.67 -14.98 27.07 C-14.37 25.94 -13.76 24.82 -13.13 23.66 C-12.81 23.08 -12.81 23.08 -11.19 20.12 C-10.56 18.97 -9.93 17.81 -9.28 16.61 C-8.06 14.38 -6.84 12.16 -5.61 9.93 C-4.65 8.17 -3.69 6.4 -2.76 4.62 C-1.74 2.68 -1.74 2.68 0 0 Z " fill="#ade6fb" transform="translate(253,40)"/>
<path d="M0 0 C3.22 2.33 3.22 2.33 6.5 5.25 C7.58 6.2 8.67 7.16 9.78 8.14 C10.84 9.08 11.91 10.03 13 11 C13.58 11.43 13.58 11.43 16.53 13.61 C17.35 14.4 18.16 15.19 19 16 C16.71 20.57 13.67 23.28 9.94 26.62 C4.47 31.58 -0.53 36.64 -5.17 42.4 C-5.77 42.93 -6.38 43.46 -7 44 C-11.63 42.84 -12.85 41.49 -16.14 38.12 C-16.63 37.62 -16.63 37.62 -19.14 35.08 C-20.16 34.02 -21.19 32.96 -22.25 31.88 C-28.65 25.34 -35.01 18.91 -42 13 C-37.34 8.34 -31.15 7.05 -25 5.02 C-22.7 4.25 -20.41 3.47 -18.11 2.68 C-16.64 2.18 -15.17 1.69 -13.7 1.2 C-13.03 0.98 -13.03 0.98 -9.66 -0.15 C-5.89 -1.02 -3.69 -1.06 0 0 Z " fill="#69b8e0" transform="translate(118,171)"/>
<path d="M0 0 C4.79 1.18 9.12 3.4 13.54 5.56 C14.25 5.91 14.97 6.26 15.71 6.62 C18.01 7.74 20.32 8.87 22.62 10 C23.41 10.38 24.19 10.77 24.99 11.16 C28.14 12.7 31.28 14.24 34.42 15.79 C38.86 17.96 43.31 20.1 47.79 22.21 C48.73 22.66 49.68 23.11 50.65 23.57 C52.34 24.38 54.04 25.18 55.75 25.96 C57.95 27.02 57.95 27.02 61 29 C59.8 33.8 58.51 34.54 54.69 37.5 C49.18 41.8 49.18 41.8 46.96 44.34 C46.31 44.89 45.67 45.44 45 46 C40.67 45.59 37.01 43.8 33.08 42.02 C32.41 41.71 32.41 41.71 29.03 40.18 C28.34 39.86 27.64 39.54 26.93 39.22 C24.84 38.26 22.75 37.31 20.65 36.37 C-0.04 26.96 -0.04 26.96 -2 25 C-2.25 21.19 -2.19 17.38 -2.19 13.56 C-2.2 12.49 -2.21 11.41 -2.22 10.3 C-2.23 9.28 -2.23 8.25 -2.23 7.19 C-2.23 6.24 -2.24 5.3 -2.24 4.32 C-2 2 -2 2 0 0 Z " fill="#304e91" transform="translate(244,285)"/>
<path d="M0 0 C4.07 2.03 6.55 4.12 9.81 7.25 C10.81 8.18 11.81 9.12 12.83 10.08 C15 13 15 13 14.95 16.11 C13.93 19.2 12.56 21.96 10.94 24.78 C10 27 10 27 9.74 30.18 C8.73 35.4 6.2 38.88 3.19 43.19 C2.65 43.98 2.12 44.77 1.57 45.59 C-4.12 53.93 -4.12 53.93 -7 56 C-9.54 56.07 -9.54 56.07 -12 55 C-13.81 52.74 -13.81 52.74 -15.44 49.88 C-17.54 46.28 -19.51 43.33 -22.5 40.44 C-25.12 36.83 -25.36 36.38 -25 32.25 C-24.68 30.5 -24.35 28.75 -24 27 C-23.96 26.54 -23.96 26.54 -23.78 24.2 C-23.24 18.8 -22.2 15.56 -18.19 11.81 C-16.5 10.49 -14.76 9.22 -13 8 C-11.9 7.23 -10.79 6.46 -9.66 5.66 C-3.15 1.38 -3.15 1.38 0 0 Z " fill="#18203a" transform="translate(382,231)"/>
<path d="M0 0 C1.12 3.36 0.87 4.31 -0.03 7.64 C-0.28 8.57 -0.53 9.51 -0.79 10.48 C-1.07 11.49 -1.35 12.5 -1.64 13.55 C-1.92 14.59 -2.21 15.64 -2.5 16.71 C-3.1 18.93 -3.7 21.14 -4.31 23.35 C-5.24 26.72 -6.16 30.09 -7.07 33.47 C-7.65 35.62 -8.24 37.77 -8.83 39.92 C-8.96 40.42 -8.96 40.42 -9.65 42.97 C-11.1 48.18 -12.72 53.09 -15 58 C-14.37 58.35 -14.37 58.35 -11.18 60.13 C-0.46 66.16 10.03 72.45 20.36 79.12 C25.19 82.23 30.05 85.24 35.06 88.06 C38.98 90.3 42.06 92.51 45 96 C45.78 96.87 46.57 97.73 47.38 98.62 C47.91 99.41 48.45 100.19 49 101 C48.84 101.5 48.84 101.5 48 104 C40.99 102.69 34.2 101.04 27.38 99 C26.47 98.74 25.56 98.48 24.62 98.21 C22.39 97.55 20.19 96.78 18 96 C18 95.34 18 94.68 18 94 C19.32 94 20.64 94 22 94 C15.54 84.02 2.29 80.21 -8.61 77.3 C-14.23 75.77 -16.84 73.38 -20.64 69.25 C-26.8 63.37 -34.67 59.17 -42.19 55.25 C-45.85 53.09 -47.51 51.94 -49 48 C-48.67 47.34 -48.34 46.68 -48 46 C-47.01 46.66 -46.02 47.32 -45 48 C-42.26 48.91 -39.53 49.76 -36.75 50.56 C-36.01 50.78 -35.27 51 -34.51 51.23 C-30.03 52.54 -25.64 53.45 -21 54 C-20.8 53.33 -20.61 52.66 -20.41 51.96 C-16.82 39.71 -13.09 27.58 -8.25 15.75 C-7.89 14.85 -7.52 13.96 -7.15 13.03 C-5.17 8.33 -3.01 4.16 0 0 Z " fill="#22396f" transform="translate(218,251)"/>
<path d="M0 0 C4.47 0.62 8.74 2.09 13.04 3.43 C13.8 3.67 14.56 3.91 15.35 4.15 C16.96 4.66 18.56 5.16 20.17 5.67 C22.62 6.44 25.08 7.2 27.54 7.96 C29.1 8.45 30.66 8.94 32.23 9.43 C32.59 9.55 32.59 9.55 34.45 10.12 C37.66 11.14 40.18 12.12 43 14 C43.72 16.57 43.72 16.57 44.2 19.78 C44.38 20.93 44.55 22.08 44.73 23.27 C44.9 24.48 45.07 25.69 45.25 26.94 C45.44 28.14 45.62 29.35 45.81 30.59 C47.14 39.59 47.14 39.59 46 43 C41.12 43.49 36.24 43.22 31.35 43.06 C29.12 43 26.9 43.02 24.68 43.05 C23.36 43.03 22.04 43.02 20.69 43 C19.5 43 18.3 43 17.07 43 C14 42 14 42 11.98 38.44 C10.1 34.39 8.58 30.27 7.17 26.04 C6.93 25.32 6.69 24.6 6.44 23.86 C5.94 22.36 5.44 20.85 4.94 19.35 C4.18 17.04 3.4 14.73 2.63 12.43 C2.14 10.96 1.65 9.5 1.17 8.04 C0.73 6.71 0.29 5.38 -0.17 4.02 C-0.44 3.02 -0.72 2.03 -1 1 C-0.67 0.67 -0.34 0.34 0 0 Z " fill="#69b8e0" transform="translate(129,79)"/>
<path d="M0 0 C13.24 2.21 30.24 13.76 39 24 C39.42 33.44 35.3 42.3 32 51 C27.92 48.96 26.16 47.24 23.19 43.88 C22.3 42.89 21.42 41.9 20.5 40.89 C19.04 39.19 17.59 37.48 16.21 35.71 C8.33 25.69 -4.04 22.8 -15.78 19.3 C-22.27 17.3 -22.27 17.3 -25 16 C-25.33 15.34 -25.66 14.68 -26 14 C-24.62 10.81 -24.62 10.81 -22 8 C-14.57 7.77 -7.94 10.53 -1 13 C-0.67 8.71 -0.34 4.42 0 0 Z " fill="#ade6fb" transform="translate(295,82)"/>
<path d="M0 0 C2.79 0.44 5.31 1.1 8 2 C7.67 2.99 7.34 3.98 7 5 C5.81 12.5 5.06 20.58 7 28 C10.79 32.1 15.08 33.46 20.27 35.07 C25.74 36.93 30.93 39.53 36.19 41.94 C38.32 42.89 40.46 43.84 42.61 44.78 C43.52 45.18 44.44 45.59 45.39 46 C47.99 47 50.23 47.75 53 48 C55.44 46.15 57.43 44.4 59.56 42.25 C67.75 34.24 67.75 34.24 70 33 C70.5 33.33 70.5 33.33 73 35 C70.29 40.43 66.36 44.09 62.12 48.38 C61.31 49.23 60.49 50.09 59.65 50.97 C59.26 51.37 59.26 51.37 57.26 53.4 C56.54 54.14 55.82 54.88 55.07 55.64 C54.39 56.09 53.71 56.54 53 57 C51.68 56.34 50.36 55.68 49 55 C46.54 55.02 46.54 55.02 44 56 C41.48 58.8 39.38 61.77 37.18 64.82 C36.46 65.54 35.74 66.26 35 67 C30.58 64.79 27.94 61.97 24.69 58.38 C24.4 58.06 24.4 58.06 22.92 56.45 C20.03 53.28 17.17 50.07 14.38 46.81 C8.08 39.54 1.17 32.75 -6.25 26.63 C-6.82 26.09 -7.4 25.56 -8 25 C-8.84 24.31 -9.68 23.62 -10.55 22.91 C-12 20 -12 20 -11.3 17.83 C-9.93 15.21 -8.42 12.74 -6.81 10.25 C-6.55 9.81 -6.55 9.81 -5.19 7.6 C-1.36 1.36 -1.36 1.36 0 0 Z " fill="#22396f" transform="translate(236,282)"/>
<path d="M0 0 C-2.19 7.96 -5.14 15.34 -8.5 22.88 C-8.99 23.99 -9.47 25.1 -9.97 26.25 C-14.64 36.8 -14.64 36.8 -17 39 C-23.12 38.7 -29.01 36.08 -34.75 34.06 C-35.8 33.7 -36.86 33.34 -37.94 32.97 C-38.95 32.62 -39.95 32.27 -40.98 31.91 C-41.9 31.59 -42.81 31.27 -43.76 30.95 C-46 30 -46 30 -48 28 C-47.63 23.59 -46.31 19.81 -44.62 15.75 C-44.2 14.71 -43.78 13.68 -43.35 12.61 C-42 10 -42 10 -39 8 C-36.32 7.2 -33.65 6.48 -30.94 5.8 C-30.15 5.6 -29.36 5.4 -28.55 5.2 C-26.89 4.78 -25.22 4.36 -23.56 3.95 C-21.01 3.31 -18.46 2.66 -15.91 2.01 C-14.3 1.61 -12.68 1.2 -11.06 0.8 C-10.3 0.61 -9.54 0.41 -8.75 0.21 C-3.34 -1.11 -3.34 -1.11 0 0 Z " fill="#69b8e0" transform="translate(377,110)"/>
<path d="M0 0 C0.33 0.16 0.33 0.16 2 1 C-1.44 10.34 -7.14 18.91 -12.75 27.09 C-14.4 29.62 -15.73 32.26 -17 35 C-17.33 34.84 -17.33 34.84 -19 34 C-21.48 36.59 -23.73 39.23 -26 42 C-26.96 43.16 -27.93 44.31 -28.89 45.46 C-40.08 58.95 -50.33 73.04 -59.66 87.87 C-60.75 89.6 -61.87 91.3 -63 93 C-63.33 93 -63.66 93 -64 93 C-63.38 86.59 -62.36 80.43 -60.97 74.15 C-60.77 73.26 -60.58 72.36 -60.37 71.43 C-59.96 69.56 -59.55 67.68 -59.13 65.8 C-58.5 62.92 -57.87 60.03 -57.24 57.13 C-56.84 55.31 -56.43 53.48 -56.03 51.65 C-55.84 50.78 -55.65 49.92 -55.46 49.02 C-55.01 47.01 -54.51 45 -54 43 C-53.67 43 -53.34 43 -53 43 C-52.88 50.62 -52.88 50.62 -54 54 C-50.14 50.25 -46.61 46.28 -43.12 42.19 C-15.81 10.44 -15.81 10.44 0 0 Z " fill="#22396f" transform="translate(251,162)"/>
<path d="M0 0 C0.66 0 1.32 0 2 0 C4.98 4.48 7.45 9.27 10 14 C10.2 14.36 10.2 14.36 11.19 16.17 C12.35 18.31 13.49 20.47 14.62 22.62 C15.32 23.94 16.01 25.25 16.73 26.6 C17.15 27.72 17.57 28.84 18 30 C7.12 51.76 -32.96 70.71 -54.95 78.38 C-57.95 79.31 -60.96 80.2 -64 81 C-64.69 78.64 -64.69 78.64 -65 76 C-61.46 73.27 -57.77 71.39 -53.79 69.36 C-33.71 58.98 -13.02 45.02 3 29 C3.4 22.45 2.3 16.41 1.07 10 C0.42 6.58 0 3.5 0 0 Z " fill="#c09e7d" transform="translate(421,385)"/>
<path d="M0 0 C3.75 1.25 4.69 2.79 7.12 5.88 C9.58 8.97 12.04 12.04 14.62 15.04 C15.45 15.99 16.27 16.95 17.12 17.94 C17.89 18.81 18.66 19.69 19.45 20.59 C19.96 21.39 20.47 22.18 21 23 C19.52 28.91 15.85 32.9 12.19 37.69 C11.46 38.66 10.74 39.64 9.99 40.64 C9.29 41.57 8.58 42.49 7.86 43.45 C7.21 44.3 6.57 45.15 5.91 46.02 C4 48 4 48 0 49 C-2.04 47.3 -2.04 47.3 -4.19 44.75 C-4.96 43.83 -5.74 42.91 -6.54 41.97 C-7.35 40.99 -8.16 40.01 -9 39 C-9.86 38.04 -10.73 37.08 -11.62 36.09 C-12.45 35.16 -13.27 34.22 -14.12 33.25 C-14.89 32.39 -15.66 31.53 -16.45 30.64 C-18 28 -18 28 -18.14 25.21 C-16.5 20.59 -13.73 17.23 -10.69 13.44 C-10.11 12.7 -9.52 11.95 -8.92 11.19 C-7.8 9.76 -6.66 8.33 -5.52 6.91 C-4.22 5.28 -2.99 3.6 -1.77 1.91 C-1.19 1.28 -0.6 0.65 0 0 Z " fill="#c09e7d" transform="translate(282,339)"/>
<path d="M0 0 C0.99 0.33 1.98 0.66 3 1 C4.38 5.14 3.07 6.58 1.2 10.48 C0.58 11.8 -0.04 13.12 -0.69 14.47 C-1.37 15.9 -2.06 17.32 -2.75 18.75 C-3.45 20.21 -4.14 21.67 -4.83 23.12 C-6.23 26.05 -7.63 28.97 -9.03 31.9 C-10.74 35.46 -12.43 39.03 -14.1 42.6 C-18.35 51.68 -22.75 60.64 -27.56 69.44 C-27.98 70.21 -28.4 70.98 -28.83 71.77 C-29.82 73.55 -30.9 75.28 -32 77 C-32.66 77 -33.32 77 -34 77 C-33.41 69.1 -31.91 61.68 -30 54 C-30.66 54 -31.32 54 -32 54 C-32.7 55.65 -33.36 57.32 -34 59 C-35.19 61.04 -36.43 63.06 -37.69 65.06 C-38.04 65.63 -38.04 65.63 -39.84 68.52 C-40.55 69.67 -41.26 70.82 -42 72 C-46.26 78.89 -49.67 85.24 -52 93 C-52.33 93 -52.66 93 -53 93 C-53.68 88.62 -54.29 84.23 -54.83 79.82 C-55.12 77.6 -55.47 75.38 -55.81 73.17 C-57.07 62.51 -57.07 62.51 -53.96 58.13 C-51.3 55.78 -51.3 55.78 -48.61 53.87 C-45.83 51.88 -44.11 49.67 -42 47 C-41.34 47 -40.68 47 -40 47 C-39.67 48.98 -39.34 50.96 -39 53 C-32.19 47.61 -26.12 41.4 -22.31 33.5 C-21 31 -21 31 -18.67 30.16 C-10.25 26.51 -5.31 13.73 -2.03 5.6 C-1.33 3.74 -0.66 1.87 0 0 Z " fill="#22396f" transform="translate(408,366)"/>
<path d="M0 0 C-0.98 3.93 -1.69 4.93 -4 8 C-5.25 10.48 -6.46 12.98 -7.62 15.5 C-8.24 16.81 -8.85 18.12 -9.48 19.47 C-11 23 -11 23 -12 27 C-10.35 27 -8.7 27 -7 27 C-14.39 36.45 -23.92 43.62 -34 50 C-32.35 51.65 -30.7 53.3 -29 55 C-34.39 54.5 -38.42 52.38 -43 49.69 C-43.69 49.3 -44.37 48.91 -45.08 48.5 C-49.15 46.16 -53.2 43.78 -57 41 C-57 40.34 -57 39.68 -57 39 C-55.87 38.36 -54.73 37.72 -53.56 37.06 C-50 35 -50 35 -49 32 C-49.86 31.75 -50.72 31.5 -51.61 31.25 C-55.24 29.91 -58.09 28.21 -61.31 26.06 C-61.84 25.72 -61.84 25.72 -64.49 23.97 C-67 22 -67 22 -68 19 C-66.68 19 -65.36 19 -64 19 C-65.48 15.44 -66.86 12.21 -69 9 C-69 8.01 -69 7.02 -69 6 C-63.72 6.33 -58.44 6.66 -53 7 C-53 10 -53 10 -55 13 C-55.02 18.32 -51.25 21.61 -47.88 25.31 C-46.69 26.64 -45.5 27.97 -44.31 29.3 C-43.74 29.94 -43.16 30.58 -42.57 31.23 C-40.63 33.41 -38.79 35.68 -36.94 37.94 C-35.97 38.95 -35 39.96 -34 41 C-32.68 41 -31.36 41 -30 41 C-27.99 38.87 -27.99 38.87 -25.88 35.88 C-25.1 34.79 -24.33 33.7 -23.53 32.58 C-22.69 31.4 -21.86 30.22 -21 29 C-20.07 27.75 -19.13 26.51 -18.19 25.26 C-17.27 24.03 -16.36 22.8 -15.44 21.56 C-14.59 20.43 -13.74 19.3 -12.87 18.13 C-10.98 14.96 -10.4 13.59 -11 10 C-12.5 7.69 -12.5 7.69 -14 6 C-10.23 2.7 -5.08 0 0 0 Z " fill="#18203a" transform="translate(316,350)"/>
<path d="M0 0 C0.99 0.33 1.98 0.66 3 1 C3.62 4.2 3.62 4.2 4 8.25 C4.74 16.19 6.8 20.83 13 26 C13.82 25.94 14.65 25.89 15.5 25.83 C16.32 25.89 17.15 25.94 18 26 C19.47 28.05 19.47 28.05 20.64 30.89 C21.07 31.91 21.5 32.93 21.95 33.98 C22.38 35.06 22.81 36.14 23.25 37.25 C23.7 38.31 24.14 39.38 24.6 40.47 C26.33 44.64 27.9 48.61 29 53 C24.26 52.42 20.52 50.34 16.44 48 C15.73 47.6 15.03 47.2 14.3 46.79 C-9.76 32.83 -9.76 32.83 -15 23 C-14.1 17.3 -10.39 13.12 -6.94 8.69 C-6.38 7.96 -5.83 7.23 -5.26 6.48 C-1.26 1.26 -1.26 1.26 0 0 Z " fill="#304e91" transform="translate(99,400)"/>
<path d="M0 0 C4.48 -0.46 8.97 -0.41 13.47 -0.43 C15.73 -0.44 17.98 -0.49 20.23 -0.54 C21.66 -0.54 23.08 -0.55 24.55 -0.56 C25.85 -0.57 27.16 -0.59 28.51 -0.6 C32.87 0.15 34.38 1.48 37 5 C36.71 8.15 36.26 10.27 35.25 13.19 C35.01 13.94 34.77 14.69 34.52 15.47 C32.37 21.78 29.21 26.83 25 32 C24.67 32.66 24.34 33.32 24 34 C21.31 34.19 21.31 34.19 18 33 C16.61 31.32 16.61 31.32 15.23 29.14 C14.71 28.33 14.19 27.52 13.66 26.68 C13.38 26.24 13.38 26.24 12 24 C11.43 23.09 10.87 22.17 10.28 21.23 C8.52 18.35 6.79 15.46 5.06 12.56 C4.46 11.57 3.86 10.58 3.24 9.56 C2.68 8.61 2.11 7.67 1.54 6.69 C1.02 5.84 0.51 4.98 -0.02 4.1 C-0.34 3.41 -0.67 2.72 -1 2 C-0.67 1.34 -0.34 0.68 0 0 Z " fill="#69b8e0" transform="translate(77,342)"/>
<path d="M0 0 C1.61 0.94 3.17 1.96 4.71 3 C12.19 7.87 20.09 11.76 28.06 15.75 C35.01 19.28 42.06 22.87 48 28 C48 28.66 48 29.32 48 30 C33.57 30.33 19.36 29.39 5 28 C4.19 27.93 3.38 27.86 2.55 27.78 C-2.76 27.24 -2.76 27.24 -5 25 C-4.08 4.08 -4.08 4.08 0 0 Z " fill="#304e91" transform="translate(211,450)"/>
<path d="M0 0 C4.28 1.73 8.53 4.88 10.62 9.06 C11.84 19.51 11.84 19.51 8.31 24 C-4.03 30.9 -4.03 30.9 -10.06 31.31 C-16.13 29.02 -20.8 24.42 -24.38 19.06 C-24.38 18.4 -24.38 17.74 -24.38 17.06 C-25.37 16.73 -26.35 16.4 -27.38 16.06 C-27.38 15.4 -27.38 14.74 -27.38 14.06 C-26.36 13.78 -25.34 13.5 -24.29 13.21 C-20.03 11.96 -17.33 10.22 -13.75 7.62 C-3.29 0.09 -3.29 0.09 0 0 Z " fill="#090a0d" transform="translate(187.375,363.9375)"/>
<path d="M0 0 C3.38 0.6 6.39 1.44 9.56 2.75 C10.44 3.11 11.31 3.47 12.21 3.84 C13.13 4.22 14.05 4.61 15 5 C15.91 5.37 16.82 5.75 17.75 6.13 C19.71 6.94 21.67 7.75 23.62 8.58 C26.18 9.65 28.74 10.7 31.32 11.73 C32.8 12.34 34.27 12.95 35.75 13.56 C36.47 13.84 37.18 14.12 37.92 14.41 C39.92 15.25 39.92 15.25 43 17 C43 18.32 43 19.64 43 21 C40.72 22.77 38.59 24.23 36.12 25.69 C35.47 26.09 34.82 26.49 34.15 26.91 C28.52 30.38 24.7 31.78 18 31 C9.97 27.14 4.69 19.75 1.71 11.54 C0.63 7.69 0.26 3.99 0 0 Z " fill="#dfc493" transform="translate(269,234)"/>
<path d="M0 0 C10.4 4.32 21.04 12.09 28 21 C29.91 28.64 29.7 34.91 26 42 C22 41 22 41 19.19 38.5 C16 36 16 36 12.25 35.5 C11.18 35.33 10.1 35.17 9 35 C8 32.94 8 32.94 7 30 C6.46 29.55 5.92 29.1 5.37 28.63 C1.24 25.15 -0.18 22.17 -0.71 16.85 C-1.05 11.56 -1.15 6.3 -1 1 C-0.67 0.67 -0.34 0.34 0 0 Z " fill="#ade6fb" transform="translate(175,309)"/>
<path d="M0 0 C2.72 2.2 3.9 3.68 4.95 7.05 C5.02 12.63 2.76 15.92 -0.12 20.56 C-0.61 21.39 -1.1 22.21 -1.6 23.06 C-9.45 36.11 -9.45 36.11 -18.06 38.44 C-33.21 43.07 -43.57 51.44 -53.16 63.79 C-55.49 66.59 -57.69 68.45 -61 70 C-63.56 70.19 -63.56 70.19 -66 69 C-67.71 66.7 -69.38 64.37 -71 62 C-56.69 52.28 -42.07 43.41 -26.76 35.34 C-14.16 28.6 -5.14 20.72 0 7 C0.31 2.88 0.31 2.88 0 0 Z " fill="#22396f" transform="translate(364,283)"/>
<path d="M0 0 C5.07 0.61 9.71 1.7 14.58 3.21 C15.28 3.43 15.28 3.43 18.84 4.54 C19.57 4.77 20.29 5 21.04 5.24 C23.26 5.94 25.48 6.63 27.7 7.32 C38.62 10.74 38.62 10.74 42 13 C42.72 16.26 43.26 19.39 43.69 22.69 C43.82 23.57 43.95 24.46 44.08 25.37 C44.77 30.29 45.14 35.03 45 40 C40.96 37.98 38.52 35.89 35.25 32.81 C31.92 29.69 28.57 26.61 25.12 23.61 C20.93 19.96 16.86 16.19 12.81 12.38 C12.13 11.73 11.44 11.09 10.74 10.43 C7.1 7.01 3.51 3.56 0 0 Z " fill="#ebfafb" transform="translate(130,80)"/>
<path d="M0 0 C3.22 2.33 3.22 2.33 6.5 5.25 C7.58 6.2 8.67 7.16 9.78 8.14 C10.84 9.08 11.91 10.03 13 11 C14.14 11.88 15.29 12.76 16.47 13.67 C17.3 14.44 18.14 15.21 19 16 C18.84 16.5 18.84 16.5 18 19 C15.12 19 12.49 18.82 9.64 18.49 C8.79 18.4 7.94 18.31 7.06 18.22 C4.31 17.93 1.56 17.62 -1.19 17.31 C-2.99 17.12 -4.8 16.93 -6.6 16.74 C-34.39 13.8 -34.39 13.8 -38 12 C-38 11.34 -38 10.68 -38 10 C-33.66 8.09 -29.14 6.62 -24.66 5.09 C-22.4 4.32 -20.15 3.52 -17.9 2.72 C-16.46 2.23 -15.03 1.73 -13.59 1.24 C-12.28 0.78 -10.97 0.33 -9.62 -0.14 C-5.86 -1.03 -3.69 -1.06 0 0 Z " fill="#ebfafb" transform="translate(118,171)"/>
<path d="M0 0 C4.21 1.4 4.99 3.78 6.97 7.6 C8.46 11.08 8.67 13.26 8 17 C5.59 22.69 2.47 26.72 -2 31 C-2.53 30.13 -3.06 29.27 -3.61 28.38 C-4.32 27.26 -5.02 26.15 -5.75 25 C-6.1 24.44 -6.1 24.44 -7.86 21.62 C-8.57 20.76 -9.27 19.89 -10 19 C-11.32 19 -12.64 19 -14 19 C-14.5 20.94 -14.5 20.94 -15 24 C-15.6 25.62 -16.25 27.22 -16.94 28.81 C-17.28 29.6 -17.62 30.39 -17.96 31.21 C-18.31 31.8 -18.65 32.39 -19 33 C-19.66 33 -20.32 33 -21 33 C-24.22 28.54 -25.22 23.52 -25.14 18.11 C-22.84 11.83 -15.82 9.07 -10.15 6.16 C-7.89 4.94 -5.79 3.57 -3.66 2.15 C-3.05 1.8 -3.05 1.8 0 0 Z " fill="#69b8e0" transform="translate(168,263)"/>
<path d="M0 0 C3.56 1.19 3.82 1.89 5.63 5.04 C6.11 5.87 6.58 6.7 7.08 7.55 C7.57 8.42 8.06 9.29 8.56 10.19 C9.06 11.04 9.55 11.89 10.06 12.77 C13.93 19.55 16.47 25.01 16 33 C15 34 15 34 12.41 34.11 C11.28 34.11 10.16 34.1 9 34.1 C7.78 34.09 6.57 34.09 5.31 34.09 C4.04 34.08 2.76 34.07 1.44 34.06 C0.15 34.06 -1.13 34.05 -2.45 34.05 C-5.63 34.04 -8.82 34.02 -12 34 C-11.62 26.13 -8.58 19.65 -5.44 12.5 C-4.92 11.3 -4.4 10.09 -3.86 8.85 C-2.58 5.9 -1.3 2.95 0 0 Z " fill="#9dd8f1" transform="translate(156,287)"/>
<path d="M0 0 C7.33 0.28 14.05 2.64 20 7 C20.69 8.99 21.36 10.99 22 13 C23.26 12.96 24.52 12.92 25.81 12.88 C27.19 12.92 28.58 12.96 30 13 C32.28 15.76 33.51 17.82 35 21 C35.53 22.07 36.06 23.15 36.6 24.25 C40.47 32.31 42.15 38.01 42 47 C37.08 45.77 35.32 43.32 32.25 39.56 C31.72 38.93 31.18 38.29 30.64 37.63 C27.05 33.33 23.54 28.96 20.06 24.57 C14.5 17.64 8.7 10.9 2.81 4.25 C0 1 0 1 0 0 Z " fill="#ade6fb" transform="translate(338,146)"/>
<path d="M0 0 C-1.38 4.65 -1.38 4.65 -4.14 6.21 C-6.69 7.81 -8.28 9.2 -10.32 11.36 C-19.77 21.26 -28.39 26.65 -42 29 C-43.32 28.67 -44.64 28.34 -46 28 C-45.47 21.95 -43.85 16.37 -41 11 C-37.46 8.64 -33.98 7.83 -29.9 6.84 C-29.51 6.74 -29.51 6.74 -27.51 6.24 C-25.84 5.82 -24.17 5.41 -22.5 5 C-19.94 4.38 -17.38 3.74 -14.83 3.1 C-13.21 2.7 -11.59 2.3 -9.96 1.9 C-9.2 1.71 -8.43 1.52 -7.64 1.32 C-2.23 0 -2.23 0 0 0 Z " fill="#ebfafb" transform="translate(376,109)"/>
<path d="M0 0 C4.41 -0.63 7.03 0.86 10.81 3 C16.01 5.74 19.21 6.55 25 6 C26.69 7.69 26.25 9.75 26.31 12.06 C26.27 18.51 24.67 23.33 20 28 C15.61 28.62 11.39 28.61 7 28 C4.5 25.69 4.5 25.69 3 22 C2.55 21.16 2.1 20.33 1.64 19.47 C-1.69 13.08 -2.57 9.05 -1 2 C-0.67 1.34 -0.34 0.68 0 0 Z " fill="#090a0d" transform="translate(114,378)"/>
<path d="M0 0 C3 1 3 1 4.17 2.83 C4.53 3.6 4.89 4.38 5.26 5.18 C5.66 6.03 6.05 6.87 6.46 7.74 C6.87 8.63 7.27 9.52 7.69 10.44 C8.1 11.32 8.52 12.21 8.95 13.12 C12 19.7 12 19.7 12 22 C9.33 22.96 9.33 22.96 5.81 23.94 C-0.5 25.69 -0.5 25.69 -3.43 27.52 C-6.86 29.49 -10.11 30 -14 30.69 C-14.69 30.81 -14.69 30.81 -18.19 31.45 C-21.22 31.89 -23.96 32.12 -27 32 C-25.27 28.55 -24.29 27.06 -21.62 24.53 C-20.95 23.88 -20.28 23.23 -19.59 22.57 C-19.24 22.23 -19.24 22.23 -17.44 20.5 C-11.46 14.68 -6.35 8.91 -1.7 1.96 C-1.42 1.64 -1.42 1.64 0 0 Z " fill="#304e91" transform="translate(339,444)"/>
<path d="M0 0 C3.61 0.59 6.53 1.57 9.79 3.21 C10.23 3.43 10.23 3.43 12.45 4.54 C13.35 5 14.26 5.46 15.19 5.94 C16.1 6.39 17.02 6.85 17.96 7.32 C24.73 10.73 24.73 10.73 27 13 C27.54 15.35 27.54 15.35 27 18 C24.18 20.25 24.18 20.25 20.44 22.44 C7.33 30.34 7.33 30.34 5 35 C4.01 35 3.02 35 2 35 C1.66 31.23 1.33 27.46 1 23.69 C0.9 22.63 0.81 21.58 0.71 20.5 C0.12 13.65 -0.12 6.88 0 0 Z " fill="#ebfafb" transform="translate(114,305)"/>
<path d="M0 0 C0.16 0.5 0.16 0.5 1 3 C-0.66 6 -2.38 8.82 -4.25 11.69 C-8.62 18.53 -12.87 25.42 -16.96 32.44 C-17.38 33.16 -17.8 33.88 -18.24 34.63 C-19.94 37.54 -21.64 40.45 -23.32 43.37 C-24.51 45.43 -25.71 47.49 -26.91 49.54 C-27.6 50.74 -28.29 51.94 -29.01 53.17 C-31 56 -31 56 -35 58 C-36.55 59.88 -38.02 61.83 -39.44 63.81 C-42.37 67.91 -45.35 71.52 -49 75 C-48.25 69.27 -47.17 63.65 -46 58 C-45.34 58.33 -44.68 58.66 -44 59 C-43.44 58.07 -42.88 57.13 -42.3 56.17 C-31.21 37.89 -18.33 20.82 -3.85 5.09 C-2 3 -2 3 0 0 Z " fill="#18203a" transform="translate(232,195)"/>
<path d="M0 0 C2.33 0.23 2.33 0.23 5 1 C5.38 1.11 5.38 1.11 7.32 1.65 C8.1 1.89 8.88 2.13 9.69 2.38 C10.55 2.64 11.41 2.9 12.3 3.17 C13.2 3.45 13.2 3.45 17.7 4.83 C18.56 5.09 19.42 5.35 20.31 5.62 C21.09 5.86 21.87 6.1 22.68 6.35 C25 7 25 7 27.73 7.4 C28.1 7.5 28.1 7.5 30 8 C30.17 8.5 30.17 8.5 31 11 C28.99 14.06 26.33 16.6 23.81 19.25 C23.13 20.01 22.44 20.77 21.73 21.55 C21.06 22.26 20.4 22.97 19.71 23.7 C19.09 24.36 18.48 25.02 17.85 25.69 C17.24 26.12 16.63 26.56 16 27 C11.24 25.81 10.85 24.87 8.19 20.94 C5.13 16.51 1.93 12.58 -1.85 8.75 C-2.23 8.18 -2.61 7.6 -3 7 C-2 3 -2 3 0 0 Z " fill="#ebfafb" transform="translate(384,192)"/>
<path d="M0 0 C2.04 1.62 4.04 3.29 6 5 C6 5.66 6 6.32 6 7 C6.99 7.33 7.98 7.66 9 8 C-19.4 50.01 -19.4 50.01 -33 63 C-33.33 62.34 -33.66 61.68 -34 61 C-32.97 58.29 -31.87 55.74 -30.62 53.12 C-30.26 52.36 -29.9 51.59 -29.52 50.79 C-26.69 45.01 -23.3 40.06 -19.29 35.02 C-11.79 25.14 -3.03 12.14 0 0 Z " fill="#8f7d6e" transform="translate(400,244)"/>
<path d="M0 0 C0.99 0.33 1.98 0.66 3 1 C1.99 2.95 0.98 4.91 -0.03 6.86 C-2.02 11.25 -2.64 15.26 -2 20 C0.99 24.28 5.02 27.13 9.44 29.81 C10.03 30.17 10.03 30.17 13 32 C13 32.66 13 33.32 13 34 C5.45 33.66 -1.81 32.39 -9.19 30.81 C-10.14 30.63 -11.1 30.44 -12.09 30.26 C-14.57 29.7 -16.74 29.16 -19 28 C-20.1 23.76 -18.61 19.97 -17.25 15.88 C-16.93 14.86 -16.6 13.85 -16.27 12.8 C-13.97 7.73 -11.03 5.92 -6 4 C-4.97 3.28 -3.94 2.56 -2.88 1.81 C-2.4 1.51 -2.4 1.51 0 0 Z " fill="#dfc493" transform="translate(132,336)"/>
<path d="M0 0 C0.66 1.32 1.32 2.64 2 4 C6 3 6 3 7 2 C9 1.96 11 1.96 13 2 C12.01 2.33 11.02 2.66 10 3 C7.59 8.91 8.87 14.7 11.19 20.45 C15.26 29.32 15.26 29.32 20.21 31.24 C23.26 31.48 25.98 31.44 29 31 C28.67 31.23 28.67 31.23 27 32.38 C26.34 32.91 25.68 33.45 25 34 C25 34.66 25 35.32 25 36 C29.19 35.4 33.01 34.43 37 33 C36.25 41.5 36.25 41.5 34 46 C33.28 45.15 32.56 44.31 31.81 43.44 C29 41 29 41 26.5 41 C24 42 24 42 21.5 43.62 C19 45 19 45 16.5 45 C12.7 43.48 11.31 42.49 9 39 C8.81 35.44 8.94 31.94 9.07 28.38 C8.96 23.15 6.97 20.04 3.4 16.35 C0.17 12.97 -1.4 10.99 -1.44 6.19 C-1 2 -1 2 0 0 Z " fill="#dfc493" transform="translate(104,375)"/>
<path d="M0 0 C1.44 8.93 2.33 17.76 2.75 26.8 C3 30 3 30 4 32 C-0.55 32.51 -2.4 32.47 -6.06 29.59 C-7.03 28.53 -8 27.47 -9 26.38 C-12.28 22.85 -15.47 19.48 -19.31 16.56 C-20.2 15.72 -21.09 14.87 -22 14 C-21.94 11.12 -21.94 11.12 -21 9 C-20.34 9.33 -19.68 9.66 -19 10 C-16.28 8.42 -13.68 6.79 -11.06 5.06 C-3.4 0 -3.4 0 0 0 Z " fill="#4495c0" transform="translate(256,64)"/>
<path d="M0 0 C0.33 0 0.66 0 1 0 C1 0.99 1 1.98 1 3 C2.24 7.96 4.39 9.84 8.09 13.2 C11.63 16.54 12.37 19.31 13 24 C11.68 24.33 10.36 24.66 9 25 C9 24.34 9 23.68 9 23 C2.57 25.74 -1.86 29.34 -6.9 34.17 C-9 36 -9 36 -11 36 C-9.31 26.92 -9.31 26.92 -7.88 22.69 C-6.33 17.96 -6.33 17.96 -7 15 C-9.18 12.71 -11.48 10.94 -14 9 C-10.8 5.29 -7.59 3.67 -3 2 C-2.01 2 -1.02 2 0 2 C0 1.34 0 0.68 0 0 Z " fill="#dfc493" transform="translate(170,325)"/>
<path d="M0 0 C0.33 0 0.66 0 1 0 C0.71 8.06 -0.39 15.85 -1.94 23.75 C-2.11 24.64 -2.28 25.54 -2.45 26.46 C-2.9 28.65 -3.44 30.83 -4 33 C-7.81 34.91 -12.57 33.01 -16.62 32.25 C-17.62 32.08 -18.61 31.91 -19.63 31.73 C-20.1 31.65 -20.1 31.65 -22.48 31.2 C-23.34 31.04 -24.21 30.89 -25.1 30.72 C-25.73 30.48 -26.36 30.25 -27 30 C-27 29.01 -27 28.02 -27 27 C-25.16 25.31 -25.16 25.31 -22.62 23.44 C-14.42 17.1 -7.42 9.97 -1.28 1.62 C-0.86 1.08 -0.43 0.55 0 0 Z " fill="#c09e7d" transform="translate(196,438)"/>
<path d="M0 0 C0.66 0 1.32 0 2 0 C2.05 2.67 2.09 5.33 2.12 8 C2.14 8.74 2.16 9.49 2.18 10.25 C2.23 16.62 1.54 22.45 -1.81 28 C-4 30 -4 30 -6.36 30.29 C-9.44 29.95 -10.9 29.14 -13.38 27.31 C-14.08 26.81 -14.79 26.31 -15.52 25.8 C-17 24 -17 24 -17.02 21.62 C-15.7 18.24 -13.84 16.29 -11.31 13.69 C-8.15 10.35 -5.18 7.05 -2.5 3.31 C-1.68 2.22 -0.85 1.13 0 0 Z " fill="#dfc493" transform="translate(351,228)"/>
<path d="M0 0 C17.76 0.05 17.76 0.05 20.85 3.13 C19.86 4.04 18.87 4.95 17.85 5.88 C11.32 11.9 4.89 17.84 -0.83 24.66 C-1.05 24.9 -1.05 24.9 -2.15 26.13 C-2.48 26.13 -2.81 26.13 -3.15 26.13 C-3.18 21.99 -3.2 17.84 -3.21 13.7 C-3.22 12.51 -3.23 11.33 -3.24 10.11 C-3.24 8.98 -3.25 7.86 -3.25 6.7 C-3.26 5.66 -3.26 4.61 -3.27 3.54 C-3.12 0.46 -3.07 0.19 0 0 Z " fill="#4495c0" transform="translate(114.15234375,187.8671875)"/>
<path d="M0 0 C0.99 0.33 1.98 0.66 3 1 C2.34 1 1.68 1 1 1 C1.22 2.4 1.43 3.8 1.66 5.24 C1.94 7.12 2.22 9 2.5 10.88 C2.64 11.79 2.79 12.71 2.93 13.66 C3.85 19.84 4.14 25.75 4 32 C3.67 32 3.34 32 3 32 C3 29.36 3 26.72 3 24 C-3.72 27.17 -9.92 30.73 -16 35 C-17.18 30.29 -16.67 29.68 -14.39 25.61 C-14.11 25.09 -14.11 25.09 -12.66 22.46 C-12.05 21.38 -11.44 20.3 -10.81 19.19 C-10.52 18.65 -10.52 18.65 -9.02 15.95 C-7.88 13.88 -6.72 11.82 -5.55 9.77 C-4.6 8.07 -3.68 6.37 -2.79 4.64 C-1.76 2.68 -1.76 2.68 0 0 Z " fill="#ade6fb" transform="translate(253,40)"/>
<path d="M0 0 C3.95 1.97 5 2.92 7.5 6.32 C8.14 7.19 8.78 8.05 9.44 8.94 C10.1 9.85 10.76 10.75 11.44 11.69 C12.09 12.57 12.75 13.46 13.42 14.37 C14.7 16.11 15.98 17.85 17.25 19.59 C18.35 21.1 19.46 22.61 20.59 24.1 C24 28.67 24 28.67 24 32 C19.34 30.57 15.11 28.69 10.75 26.5 C9.53 25.89 8.31 25.28 7.05 24.66 C4 23 4 23 2 21 C1.59 18.85 1.59 18.85 1.37 16.21 C1.28 15.27 1.2 14.33 1.11 13.36 C1.03 12.37 0.96 11.39 0.88 10.38 C0.79 9.38 0.7 8.39 0.61 7.37 C0.4 4.91 0.2 2.46 0 0 Z " fill="#ebfafb" transform="translate(254,41)"/>
<path d="M0 0 C1.13 2.05 1.13 2.05 2.35 4.89 C2.79 5.91 3.23 6.93 3.68 7.98 C4.14 9.06 4.59 10.14 5.06 11.25 C5.52 12.31 5.98 13.38 6.46 14.47 C8.25 18.65 9.89 22.58 11 27 C6.05 26.43 2.13 24.11 -2.12 21.69 C-2.84 21.3 -3.56 20.91 -4.29 20.5 C-11.98 16.17 -11.98 16.17 -13 13 C-11.37 10.42 -9.86 8.47 -7.81 6.25 C-7.55 5.95 -7.55 5.95 -6.23 4.43 C-2.31 0 -2.31 0 0 0 Z " fill="#c09e7d" transform="translate(117,426)"/>
<path d="M0 0 C5.06 -0.29 7.66 1.46 12 4 C12.66 3.67 13.32 3.34 14 3 C15.91 10.64 15.7 16.91 12 24 C7.43 22.86 5.54 21.02 2 18 C0.68 17.34 -0.64 16.68 -2 16 C-1.67 15.34 -1.34 14.68 -1 14 C-0.77 11.63 -0.59 9.25 -0.44 6.88 C-0.35 5.59 -0.27 4.31 -0.18 2.99 C-0.15 2.5 -0.15 2.5 0 0 Z " fill="#ade6fb" transform="translate(189,327)"/>
<path d="M0 0 C4.56 2.28 5.77 4.14 8.56 8.31 C9.33 9.44 10.09 10.57 10.88 11.74 C16.71 20.71 16.71 20.71 16 25 C15.01 25.33 14.02 25.66 13 26 C11.05 24.58 9.44 22.94 7.72 21.25 C7.15 20.84 6.58 20.43 6 20 C2 21.33 1.27 23.56 -1 27 C-1.66 27 -2.32 27 -3 27 C-2.48 17.9 -1.54 8.99 0 0 Z " fill="#090a0d" transform="translate(149,386)"/>
<path d="M0 0 C1.22 0.37 2.43 0.74 3.69 1.12 C5.31 1.42 6.94 1.71 8.56 2 C9.92 2.37 11.29 2.74 12.69 3.12 C13.69 6.12 13.69 6.12 12.78 8.89 C11.01 12.28 9.6 14.63 6.69 17.12 C1.42 17.56 -3.26 16.61 -8.31 15.12 C-9.31 14.12 -9.31 14.12 -9.75 11.56 C-9.02 5.85 -6.19 0.23 0 0 Z " fill="#9dd8f1" transform="translate(392.3125,290.875)"/>
<path d="M0 0 C3.38 0.6 6.39 1.44 9.56 2.75 C10.44 3.11 11.31 3.47 12.21 3.84 C13.13 4.22 14.05 4.61 15 5 C15.91 5.37 16.82 5.75 17.75 6.13 C19.71 6.94 21.67 7.75 23.62 8.58 C26.18 9.65 28.74 10.7 31.32 11.73 C32.8 12.34 34.27 12.95 35.75 13.56 C36.47 13.84 37.18 14.12 37.92 14.41 C39.92 15.25 39.92 15.25 43 17 C43 18.32 43 19.64 43 21 C40.72 22.77 38.59 24.23 36.12 25.69 C35.47 26.09 34.82 26.49 34.15 26.91 C28.52 30.38 24.7 31.78 18 31 C9.97 27.14 4.69 19.75 1.71 11.54 C0.63 7.69 0.26 3.99 0 0 Z M4 4 C2.41 10.35 5.71 14.77 8.88 20.25 C11.68 23.89 14.86 26.93 19 29 C25.56 29.8 29.74 27.63 35 24 C38.06 21.19 38.06 21.19 40 19 C32.5 15.06 24.82 11.79 16.94 8.69 C16.37 8.46 16.37 8.46 13.49 7.31 C5.15 4 5.15 4 4 4 Z " fill="#f49413" transform="translate(269,234)"/>
<path d="M0 0 C1.46 2.26 1.46 2.26 2.8 5.4 C3.28 6.52 3.76 7.64 4.26 8.79 C4.75 9.97 5.24 11.16 5.75 12.38 C6.26 13.55 6.76 14.73 7.29 15.94 C11 24.65 11 24.65 11 27 C6.7 26.49 2.86 26.02 -1 24 C-2.39 21.85 -2.39 21.85 -3.46 19.21 C-3.85 18.27 -4.24 17.33 -4.64 16.36 C-5.03 15.37 -5.41 14.39 -5.81 13.38 C-6.22 12.38 -6.63 11.39 -7.04 10.37 C-8.05 7.92 -9.03 5.46 -10 3 C-4 0 -4 0 0 0 Z " fill="#304e91" transform="translate(129,430)"/>
<path d="M0 0 C5.88 1.47 8.95 5.48 13.22 9.63 C16 12 16 12 19 12 C18.67 12.99 18.34 13.98 18 15 C14.71 15.33 14.71 15.33 10.38 15.25 C9.62 15.24 8.86 15.23 8.09 15.22 C0.71 15.08 -6.65 14.6 -14 14 C-13.27 13.28 -12.54 12.55 -11.79 11.8 C-10.06 10.07 -8.35 8.3 -6.68 6.51 C-5.94 5.72 -5.2 4.94 -4.44 4.12 C-3.69 3.32 -2.95 2.52 -2.18 1.7 C-1.46 1.14 -0.74 0.58 0 0 Z " fill="#4495c0" transform="translate(157,107)"/>
<path d="M0 0 C0.72 3.33 1.26 6.51 1.69 9.88 C1.82 10.8 1.95 11.72 2.08 12.68 C2.56 16.15 3 19.49 3 23 C3.66 23.33 4.32 23.66 5 24 C-0.04 24 -0.67 22.81 -4.19 19.38 C-8.87 14.95 -13.54 11.4 -19 8 C-17.68 7.34 -16.36 6.68 -15 6 C-11.92 4.13 -8.84 2.25 -5.78 0.36 C-3 -1 -3 -1 0 0 Z " fill="#4495c0" transform="translate(137,161)"/>
<path d="M0 0 C3.4 4.39 5.95 9.2 8.6 14.07 C10.77 18.02 13.06 21.58 16 25 C15.29 25.55 14.58 26.11 13.85 26.68 C12.93 27.4 12.01 28.13 11.06 28.88 C10.15 29.59 9.23 30.31 8.29 31.05 C6 33 6 33 5 35 C4.01 35 3.02 35 2 35 C1.66 31.23 1.33 27.46 1 23.69 C0.9 22.63 0.81 21.58 0.71 20.5 C0.12 13.65 -0.12 6.88 0 0 Z " fill="#69b8e0" transform="translate(114,305)"/>
<path d="M0 0 C3.09 5.12 4.27 9.04 5 15 C5.66 15.33 6.32 15.66 7 16 C0.78 15.09 -4.84 13.14 -10.75 11.06 C-11.28 10.88 -11.28 10.88 -13.94 9.97 C-14.95 9.62 -15.95 9.27 -16.98 8.91 C-17.44 8.75 -17.44 8.75 -19.76 7.95 C-22 7 -22 7 -24 5 C-23.67 4.01 -23.34 3.02 -23 2 C-22.67 2.66 -22.34 3.32 -22 4 C-17.2 3.17 -12.77 1.95 -8.19 0.31 C-4 -1 -4 -1 0 0 Z " fill="#4495c0" transform="translate(353,133)"/>
<path d="M0 0 C2.69 1.98 5.35 3.98 8 6 C8.98 6.75 9.97 7.49 10.98 8.26 C11.48 8.65 11.48 8.65 14 10.62 C14.95 11.36 15.9 12.09 16.88 12.85 C19 15 19 15 19 19 C15.39 18.72 11.79 18.43 8.19 18.12 C7.16 18.05 6.14 17.97 5.08 17.89 C4.1 17.8 3.12 17.72 2.11 17.63 C1.65 17.6 1.65 17.6 -0.64 17.41 C-3 17 -3 17 -6 15 C-5.65 14.25 -5.3 13.5 -4.94 12.73 C-4.49 11.75 -4.03 10.76 -3.56 9.75 C-3.11 8.78 -2.66 7.8 -2.19 6.8 C-1 4 -1 4 0 0 Z " fill="#ade6fb" transform="translate(117,171)"/>
<path d="M0 0 C0.33 0 0.66 0 1 0 C1.7 2.51 2.33 5.03 2.94 7.56 C4.95 15.88 4.95 15.88 6.63 19.66 C6.75 20.76 6.88 21.87 7 23 C4.73 25.59 1.91 27.12 -1.06 28.81 C-1.84 29.29 -2.62 29.77 -3.42 30.26 C-7.17 32.52 -10.85 34.56 -15 36 C-14.47 35.12 -13.94 34.23 -13.39 33.32 C-7.38 23.12 -3.48 13.47 -0.61 2.02 C-0.41 1.35 -0.21 0.69 0 0 Z " fill="#18203a" transform="translate(161,236)"/>
<path d="M0 0 C4.77 1.19 5.79 2.59 8.88 6.31 C9.29 6.8 9.29 6.8 11.37 9.24 C11.91 10.15 12.44 11.06 13 12 C11.34 15.31 9.72 17.9 7.5 20.81 C6.89 21.62 6.28 22.43 5.66 23.27 C5.11 23.84 4.56 24.41 4 25 C3.34 24.67 2.68 24.34 2 24 C1.59 21.71 1.59 21.71 1.38 18.94 C1.3 18.02 1.23 17.1 1.15 16.15 C1.1 15.44 1.05 14.73 1 14 C-1.64 14 -4.28 14 -7 14 C-6.43 10.12 -5.32 7.41 -3.19 4.12 C-2.69 3.32 -2.18 2.52 -1.67 1.7 C-1.12 1.14 -0.57 0.58 0 0 Z " fill="#9dd8f1" transform="translate(281,351)"/>
<path d="M0 0 C0.99 0.33 1.98 0.66 3 1 C3.33 2.32 3.66 3.64 4 5 C-0.82 11.43 -9.36 15.7 -16 20 C-17.07 20.74 -18.14 21.48 -19.24 22.24 C-22 24 -22 24 -24 24 C-24.38 20.66 -24.65 18.24 -24 15 C-21.39 12.66 -19.52 11.32 -16.5 9.75 C-15.8 9.36 -15.11 8.96 -14.39 8.55 C-12.98 7.76 -11.57 6.98 -10.15 6.21 C-7.91 4.95 -5.8 3.56 -3.66 2.14 C-2.45 1.43 -1.24 0.73 0 0 Z " fill="#ade6fb" transform="translate(168,263)"/>
<path d="M0 0 C0.33 0 0.66 0 1 0 C1.03 0.67 1.05 1.33 1.08 2.02 C1.19 5.05 1.31 8.09 1.44 11.12 C1.48 12.17 1.52 13.22 1.56 14.3 C2.01 25.4 2.01 25.4 3 29 C3.99 29.66 4.98 30.32 6 31 C3.19 31.17 3.19 31.17 -11 32 C-10.28 26.22 -9.87 22.99 -7.75 17.97 C-7.31 16.91 -6.86 15.85 -6.41 14.77 C-5.94 13.69 -5.48 12.61 -5 11.5 C-4.54 10.39 -4.07 9.28 -3.59 8.14 C-1.08 2.21 -1.08 2.21 0 0 Z " fill="#69b8e0" transform="translate(155,289)"/>
<path d="M0 0 C2 1 2 1 4.69 4.25 C7.75 7.92 11.02 10.38 15 13 C11.2 14.9 7.51 16.31 3.5 17.69 C2.19 18.15 0.88 18.6 -0.47 19.07 C-4 20 -4 20 -8 19 C-7.47 12.95 -5.85 7.37 -3 2 C-2.01 1.34 -1.02 0.68 0 0 Z " fill="#ade6fb" transform="translate(338,118)"/>
<path d="M0 0 C4.33 2.16 6.22 4.21 9.31 7.88 C10.22 8.92 11.12 9.97 12.05 11.05 C12.69 12.03 13.34 13 14 14 C12.91 18.37 11.37 20.55 8.69 24.12 C7.91 25.18 7.13 26.23 6.32 27.32 C4 30 4 30 0 32 C-2.23 30.03 -3.91 28.24 -5.75 25.94 C-6.26 25.35 -6.76 24.76 -7.29 24.16 C-9.3 21.71 -10.85 19.59 -11.64 16.49 C-10.67 12.69 -8.5 10.28 -6.06 7.25 C-5.15 6.1 -4.23 4.95 -3.29 3.77 C-1 1 -1 1 0 0 Z M-1 3 C-2.82 5.05 -2.82 5.05 -4.69 7.75 C-5.31 8.63 -5.93 9.51 -6.57 10.42 C-8 13 -8 13 -8 17 C-5.36 17 -2.72 17 0 17 C0.33 20.3 0.66 23.6 1 27 C4 27 4 27 6.11 24.99 C6.84 24.11 7.56 23.22 8.31 22.31 C8.68 21.88 8.68 21.88 10.55 19.68 C12 17 12 17 11.48 14.47 C9.87 11.78 8.14 9.52 6.06 7.19 C5.37 6.4 4.68 5.61 3.97 4.79 C2 3 2 3 -1 3 Z " fill="#22396f" transform="translate(282,348)"/>
<path d="M0 0 C2.94 2.74 5.34 5.31 7 9 C4.71 13.58 2.79 14.87 -1.38 17.75 C-1.68 17.97 -1.68 17.97 -3.25 19.05 C-4.53 19.94 -5.81 20.82 -7.1 21.7 C-8.92 22.94 -10.72 24.2 -12.52 25.46 C-18.66 29.69 -18.66 29.69 -21 31 C-21.66 30.67 -22.32 30.34 -23 30 C-22.54 29.57 -22.08 29.15 -21.6 28.71 C-12.85 20.32 -5.5 10.81 0 0 Z " fill="#22396f" transform="translate(353,272)"/>
<path d="M0 0 C0.33 0 0.66 0 1 0 C1.59 5.62 -0.38 9.18 -3.25 13.81 C-3.7 14.55 -4.15 15.29 -4.61 16.06 C-9.2 23.53 -14.24 30.68 -19.4 37.77 C-21.1 40.14 -22.75 42.53 -24.41 44.93 C-25.54 46.56 -26.68 48.19 -27.81 49.81 C-28.33 50.57 -28.84 51.33 -29.37 52.11 C-32.73 56.87 -35.64 59.64 -41 62 C-41.66 61.67 -42.32 61.34 -43 61 C-42.75 60.73 -42.75 60.73 -41.5 59.37 C-36.61 53.95 -32.09 48.36 -27.75 42.5 C-27.11 41.64 -26.46 40.77 -25.8 39.89 C-1.92 7.69 -1.92 7.69 0 0 Z " fill="#22396f" transform="translate(412,243)"/>
<path d="M0 0 C2.46 3.69 2.61 6.36 3.12 10.75 C3.29 12.13 3.46 13.5 3.63 14.92 C3.97 18.64 4.07 22.27 4 26 C-0.15 23.92 -2.75 21.66 -6.12 18.5 C-7.18 17.52 -8.23 16.54 -9.32 15.53 C-10.9 14.04 -12.46 12.54 -14 11 C-13.49 10.74 -13.49 10.74 -10.94 9.44 C-6.55 6.96 -3.44 3.66 0 0 Z " fill="#ade6fb" transform="translate(171,94)"/>
<path d="M0 0 C9.9 0.33 19.8 0.66 30 1 C28.36 4.27 26.93 6.56 24.62 9.31 C24.04 10.03 23.45 10.75 22.85 11.49 C22.24 11.99 21.63 12.49 21 13 C16.15 11.79 12.52 9.59 8.25 7.06 C7.46 6.61 6.66 6.15 5.85 5.68 C3.86 4.51 1.93 3.26 0 2 C0 1.34 0 0.68 0 0 Z " fill="#ebfafb" transform="translate(78,342)"/>
<path d="M0 0 C0.66 0 1.32 0 2 0 C2.33 0.99 2.66 1.98 3 3 C0.99 6.06 -1.67 8.6 -4.19 11.25 C-4.87 12.01 -5.56 12.77 -6.27 13.55 C-6.94 14.26 -7.6 14.97 -8.29 15.7 C-8.91 16.36 -9.52 17.02 -10.15 17.69 C-10.76 18.12 -11.37 18.56 -12 19 C-16.34 17.91 -16.79 17.5 -19.25 14.06 C-19.77 13.35 -20.29 12.64 -20.83 11.91 C-22 10 -22 10 -22 8 C-19.27 7.03 -16.6 6.2 -13.81 5.44 C-13.04 5.22 -12.27 5 -11.48 4.77 C-8.32 3.87 -5.19 3.03 -1.95 2.47 C-1.31 2.32 -0.66 2.16 0 2 C0 1.34 0 0.68 0 0 Z " fill="#69b8e0" transform="translate(412,200)"/>
<path d="M0 0 C0.33 0.66 0.66 1.32 1 2 C3.66 2.36 6.33 2.69 9 3 C12 3.94 12 3.94 14 5 C14 5.66 14 6.32 14 7 C11.88 8.31 11.88 8.31 8.93 9.79 C7.87 10.32 6.81 10.85 5.71 11.39 C4.59 11.94 3.47 12.49 2.31 13.06 C1.21 13.62 0.11 14.17 -1.03 14.74 C-10.07 19.23 -10.07 19.23 -15 20 C-13.21 16.43 -11.93 14.57 -9 12 C-8.34 12 -7.68 12 -7 12 C-7 11.34 -7 10.68 -7 10 C-4.36 10 -1.72 10 1 10 C1 9.34 1 8.68 1 8 C-1.31 7.26 -3.65 6.59 -6 6 C-4 4 -2 2 0 0 Z " fill="#69b8e0" transform="translate(364,312)"/>
<path d="M0 0 C0.66 0 1.32 0 2 0 C3.12 3 3.12 3 4 6 C5.32 5.67 6.64 5.34 8 5 C11.21 12.12 12.13 17.19 12 25 C6.88 23.72 4.95 20.85 1.75 16.94 C1.2 16.27 0.64 15.61 0.07 14.93 C-1.29 13.29 -2.65 11.65 -4 10 C-3.34 9.34 -2.68 8.68 -2 8 C-1.67 6.64 -1.34 5.28 -1 3.88 C-0.83 3.24 -0.83 3.24 0 0 Z " fill="#9dd8f1" transform="translate(368,168)"/>
<path d="M0 0 C-0.66 5 -2.75 9.23 -4.88 13.75 C-5.23 14.53 -5.58 15.31 -5.94 16.11 C-6.88 18.12 -7.93 20.06 -9 22 C-9.99 22.33 -10.98 22.66 -12 23 C-12.87 20.9 -13.72 18.8 -14.56 16.69 C-15.04 15.52 -15.51 14.34 -16 13.14 C-17 10 -17 10 -16 7 C-13.16 5.18 -13.16 5.18 -9.62 3.31 C-8.46 2.69 -7.3 2.07 -6.1 1.43 C-3 0 -3 0 0 0 Z " fill="#4495c0" transform="translate(156,134)"/>
<path d="M0 0 C-1.4 4.29 -3.4 6.7 -6.56 9.88 C-15.2 19.14 -20.91 30.08 -25.81 41.68 C-26.2 42.45 -26.59 43.21 -27 44 C-27.66 44 -28.32 44 -29 44 C-28.48 37.95 -26.67 33.36 -24 28 C-23.57 27.12 -23.13 26.24 -22.68 25.33 C-18.87 17.96 -9.26 0 0 0 Z " fill="#ebfafb" transform="translate(146,124)"/>
<path d="M0 0 C3.34 1.67 5.49 3.09 8.25 5.5 C8.96 6.11 9.66 6.72 10.39 7.34 C12 9 12 9 12 11 C8.96 11.34 5.92 11.67 2.88 12 C2.02 12.1 1.16 12.19 0.28 12.29 C-4.17 12.77 -8.51 13.12 -13 13 C-13 11 -13 11 -11.43 9.41 C-9.29 7.6 -7.14 5.8 -5 4 C-4.55 3.58 -4.55 3.58 -2.25 1.44 C-1.51 0.96 -0.76 0.49 0 0 Z " fill="#304e91" transform="translate(288,467)"/>
<path d="M0 0 C0.66 1.32 1.32 2.64 2 4 C6 3 6 3 7 2 C9 1.96 11 1.96 13 2 C12.01 2.33 11.02 2.66 10 3 C8.24 7.99 8.49 12.64 10.32 17.55 C11.41 19.84 12.56 22.11 13.75 24.35 C14.16 25.22 14.58 26.1 15 27 C14.67 27.66 14.34 28.32 14 29 C9.57 26.78 9.15 25.53 7.21 21.21 C5.85 18.73 4.24 17.06 2.25 15.06 C-0.53 12.06 -1.47 10.24 -1.5 6.12 C-1 2 -1 2 0 0 Z " fill="#dfc493" transform="translate(104,375)"/>
<path d="M0 0 C-0.56 2.13 -1.15 4.25 -1.75 6.38 C-2.07 7.56 -2.4 8.74 -2.73 9.96 C-4 13 -4 13 -8 15 C-11.23 14.39 -11.23 14.39 -14.75 13.25 C-15.92 12.88 -17.09 12.52 -18.3 12.14 C-19.19 11.76 -20.08 11.39 -21 11 C-21 10.34 -21 9.68 -21 9 C-18.24 7 -15.17 5.46 -12.19 3.81 C-11.35 3.34 -10.52 2.86 -9.66 2.37 C-8.86 1.92 -8.06 1.48 -7.23 1.02 C-6.49 0.61 -5.75 0.2 -4.99 -0.23 C-3 -1 -3 -1 0 0 Z " fill="#4495c0" transform="translate(212,86)"/>
<path d="M0 0 C4.78 2.39 5.76 4.36 8.38 8.94 C9.1 10.18 9.83 11.43 10.59 12.71 C11.05 13.8 11.52 14.88 12 16 C9.65 19.53 7.87 20.38 4 22 C2.68 22 1.36 22 0 22 C0 14.74 0 7.48 0 0 Z " fill="#ebfafb" transform="translate(157,289)"/>
<path d="M0 0 C0 1.32 0 2.64 0 4 C-3.06 5.32 -5.95 6.35 -9.12 7.31 C-17.03 9.86 -24.14 12.83 -31.45 16.81 C-32.29 17.2 -33.13 17.6 -34 18 C-34.66 17.67 -35.32 17.34 -36 17 C-32.03 12.58 -27.95 10.04 -22.75 7.38 C-22.04 6.99 -21.32 6.61 -20.59 6.22 C-14.31 2.94 -7.25 -0.7 0 0 Z " fill="#ebfafb" transform="translate(219,74)"/>
<path d="M0 0 C5.28 0.33 10.56 0.66 16 1 C16 4 16 4 14 7 C14.38 10.69 14.38 10.69 15 14 C10.81 13.75 8.55 13.45 5.25 10.75 C0 4.33 0 4.33 0 0 Z " fill="#22396f" transform="translate(247,356)"/>
<path d="M0 0 C4.08 2.04 5.3 3.51 8 7 C8.99 7.66 9.98 8.32 11 9 C10.58 9.55 10.16 10.11 9.72 10.68 C9.17 11.4 8.63 12.13 8.06 12.88 C7.52 13.59 6.97 14.31 6.41 15.05 C5 17 5 17 4 19 C1.06 18.81 1.06 18.81 -2 18 C-2.66 17.01 -3.32 16.02 -4 15 C-3.34 15 -2.68 15 -2 15 C-1.94 14.34 -1.88 13.67 -1.82 12.99 C-0.98 4.22 -0.98 4.22 0 0 Z " fill="#4495c0" transform="translate(97,357)"/>
<path d="M0 0 C4.27 1.44 7.28 3.58 10.75 6.44 C11.71 7.22 12.68 8 13.67 8.81 C16 11 16 11 17 14 C9.5 16.12 9.5 16.12 5 15 C3.52 12.38 3.52 12.38 2.25 9.12 C1.82 8.06 1.39 6.99 0.95 5.88 C0 3 0 3 0 0 Z " fill="#4495c0" transform="translate(306,93)"/>
<path d="M0 0 C0.66 0 1.32 0 2 0 C2.05 2.67 2.09 5.33 2.12 8 C2.14 8.74 2.16 9.49 2.18 10.25 C2.23 16.62 1.54 22.45 -1.81 28 C-4 30 -4 30 -6.36 30.29 C-9.44 29.95 -10.9 29.14 -13.38 27.31 C-14.08 26.81 -14.79 26.31 -15.52 25.8 C-17 24 -17 24 -17.02 21.62 C-15.7 18.24 -13.84 16.29 -11.31 13.69 C-8.15 10.35 -5.18 7.05 -2.5 3.31 C-1.68 2.22 -0.85 1.13 0 0 Z M-1 5 C-3.29 7.37 -5.47 9.76 -7.62 12.25 C-7.93 12.59 -7.93 12.59 -9.48 14.32 C-9.77 14.65 -9.77 14.65 -11.23 16.33 C-11.76 16.94 -12.29 17.54 -12.84 18.17 C-14 20 -14 20 -14 24 C-11.12 26.48 -9.13 27.89 -5.31 28.25 C-2.35 26.65 -1.58 24.82 -0.56 21.68 C0.59 16.19 0.77 10.59 1 5 C0.34 5 -0.32 5 -1 5 Z " fill="#f49413" transform="translate(351,228)"/>
<path d="M0 0 C3.97 1.99 5.63 3.54 8.5 6.81 C9.25 7.66 10.01 8.52 10.78 9.39 C11.15 9.82 11.15 9.82 13 12 C13.79 12.85 14.59 13.7 15.41 14.57 C15.93 15.37 16.46 16.18 17 17 C16.34 18.32 15.68 19.64 15 21 C10.18 19.79 8.33 17.51 5.25 13.88 C4.74 13.32 4.24 12.76 3.71 12.19 C1.02 9.04 0.02 7.24 -0.33 3.07 C-0.22 2.06 -0.11 1.04 0 0 Z " fill="#dfc493" transform="translate(283,341)"/>
<path d="M0 0 C6.64 1.39 13.08 3.14 19.56 5.12 C20.48 5.4 21.39 5.68 22.33 5.96 C24.55 6.64 26.78 7.32 29 8 C28.67 8.99 28.34 9.98 28 11 C24.47 11.11 24.47 11.11 20.06 10.75 C18.61 10.64 17.16 10.53 15.66 10.42 C12 10 12 10 10 9 C9.67 9.66 9.34 10.32 9 11 C7.5 9.36 6 7.71 4.5 6.06 C3.66 5.15 2.83 4.23 1.97 3.29 C0 1 0 1 0 0 Z " fill="#18203a" transform="translate(237,347)"/>
<path d="M0 0 C0.66 0 1.32 0 2 0 C3 3 3 3 2.09 5.77 C0.32 9.16 -1.08 11.51 -4 14 C-9.26 14.38 -13.93 13.38 -19 12 C-19 11.01 -19 10.02 -19 9 C-16.84 8.2 -14.67 7.42 -12.46 6.76 C-10 6 -10 6 -6.12 4.31 C-3 3 -3 3 0 3 C0 2.01 0 1.02 0 0 Z " fill="#69b8e0" transform="translate(403,294)"/>
<path d="M0 0 C2.41 0.63 4.21 1.21 6 3 C6.36 5.35 6.36 5.35 6 8 C3.95 9.84 3.95 9.84 1.25 11.38 C0.37 11.9 -0.51 12.42 -1.42 12.96 C-4 14 -4 14 -8 13 C-9.25 10.44 -9.25 10.44 -10 8 C-8.91 7.42 -7.81 6.85 -6.69 6.25 C-3 4 -3 4 -1.38 1.62 C-0.92 1.09 -0.47 0.55 0 0 Z " fill="#ade6fb" transform="translate(135,315)"/>
<path d="M0 0 C1 2 1 2 0.38 4.06 C0.21 4.48 0.21 4.48 -0.65 6.57 C-1.02 7.47 -1.38 8.36 -1.76 9.29 C-2.15 10.22 -2.54 11.16 -2.94 12.12 C-3.32 13.07 -3.71 14.01 -4.11 14.99 C-5.06 17.33 -6.03 19.67 -7 22 C-9.33 19.67 -11.67 17.33 -14 15 C-12.3 11.6 -11.17 9.89 -8.56 7.31 C-7.97 6.71 -7.37 6.11 -6.75 5.49 C-5 4 -5 4 -2 3 C-1.34 2.01 -0.68 1.02 0 0 Z " fill="#4495c0" transform="translate(376,110)"/>
<path d="M0 0 C8.62 2.15 16.28 9.37 22 16 C21.67 16.99 21.34 17.98 21 19 C11.64 14.94 5.92 9.25 0 1 C0 0.67 0 0.34 0 0 Z " fill="#ebfafb" transform="translate(180,313)"/>
<path d="M0 0 C6.24 1.37 10.69 4.07 15.88 7.62 C16.67 8.16 17.46 8.7 18.27 9.25 C30.32 17.53 30.32 17.53 34 22 C34 22.99 34 23.98 34 25 C30.25 23.12 27.98 21.32 24.88 18.56 C18.92 13.48 12.56 9.49 5.79 5.58 C3.83 4.44 1.91 3.22 0 2 C0 1.34 0 0.68 0 0 Z " fill="#ebfafb" transform="translate(300,84)"/>
<path d="M0 0 C-1.5 1.69 -2.99 3.39 -4.49 5.08 C-6 7 -6 7 -8 11 C-10.31 13.31 -10.31 13.31 -13 15 C-15.81 14.94 -15.81 14.94 -18 14 C-18 11 -18 11 -16.29 9.28 C-15.55 8.69 -14.82 8.11 -14.06 7.5 C-10.11 4.32 -10.11 4.32 -9 1 C-3.79 -1.26 -3.79 -1.26 0 0 Z " fill="#22396f" transform="translate(86,245)"/>
<path d="M0 0 C-4.29 4.29 -8.58 8.58 -13 13 C-13.33 12.34 -13.66 11.68 -14 11 C-17.06 10.88 -17.06 10.88 -20 11 C-15.8 6.05 -6.73 -2.24 0 0 Z " fill="#69b8e0" transform="translate(331,361)"/>
<path d="M0 0 C0.39 0.04 0.39 0.04 2.38 0.25 C7.15 0.72 11.36 1.1 16.12 0.38 C17.07 0.25 18.02 0.13 19 0 C21.28 3.42 21.22 4.68 21.12 8.69 C21.11 9.68 21.09 10.68 21.07 11.7 C21.05 12.46 21.02 13.22 21 14 C20.67 14 20.34 14 20 14 C19.67 11.36 19.34 8.72 19 6 C17.91 6.1 16.81 6.21 15.69 6.31 C9.91 6.35 4.96 3.78 0 1 C0 0.67 0 0.34 0 0 Z " fill="#c09e7d" transform="translate(120,379)"/>
<path d="M0 0 C0.33 0.99 0.66 1.98 1 3 C3.68 2.75 6.34 2.41 9 2 C10.64 3.64 10.32 5.68 10.5 7.94 C10.89 12.78 10.89 12.78 12 15 C7.38 13.85 6.62 12.82 3.75 9.19 C3.04 8.31 2.34 7.44 1.61 6.54 C0 4 0 4 0 0 Z " fill="#4495c0" transform="translate(273,362)"/>
<path d="M0 0 C3.57 2.67 6.45 5.32 9 9 C9 9.99 9 10.98 9 12 C6.34 12.38 3.67 12.71 1 13 C0 12 0 12 -0.1 9.28 C-0.09 8.18 -0.07 7.07 -0.06 5.94 C-0.05 4.83 -0.04 3.73 -0.04 2.59 C-0.02 1.74 -0.01 0.88 0 0 Z " fill="#ebfafb" transform="translate(283,351)"/>
<path d="M0 0 C-1.27 5.06 -3.11 7.77 -7.5 10.62 C-8.32 10.75 -9.15 10.87 -10 11 C-12.31 8.62 -12.31 8.62 -14 6 C-10.23 2.7 -5.08 0 0 0 Z " fill="#22396f" transform="translate(316,350)"/>
<path d="M0 0 C0.66 0 1.32 0 2 0 C2.85 2.84 2.85 2.84 3.62 6.5 C3.89 7.71 4.15 8.91 4.41 10.16 C4.61 11.09 4.8 12.03 5 13 C4.34 13 3.68 13 3 13 C2.94 13.7 2.88 14.4 2.82 15.12 C2.77 15.57 2.77 15.57 2.56 17.88 C2.48 18.78 2.4 19.68 2.32 20.62 C2 23 2 23 1 25 C0.34 25 -0.32 25 -1 25 C-0.67 16.75 -0.34 8.5 0 0 Z " fill="#dfc493" transform="translate(154,421)"/>
<path d="M0 0 C0.99 0.33 1.98 0.66 3 1 C3.33 1.99 3.66 2.98 4 4 C3.34 4 2.68 4 2 4 C2.04 5.24 2.08 6.48 2.12 7.75 C2.14 13.62 1.09 19.25 0 25 C-1.32 24.67 -2.64 24.34 -4 24 C-3.34 23.67 -2.68 23.34 -2 23 C-1.7 20.99 -1.7 20.99 -1.62 18.38 C-1.59 17.44 -1.55 16.51 -1.52 15.54 C-1.49 14.56 -1.46 13.58 -1.44 12.56 C-1.38 10.63 -1.31 8.69 -1.25 6.75 C-1.22 5.89 -1.2 5.03 -1.17 4.14 C-1 2 -1 2 0 0 Z " fill="#dfc493" transform="translate(167,420)"/>
<path d="M0 0 C2.19 1.94 2.19 1.94 5 5 C5.32 5.33 5.32 5.33 6.92 6.98 C7.56 7.66 8.21 8.35 8.88 9.06 C9.49 9.71 10.11 10.36 10.74 11.04 C11.16 11.68 11.57 12.33 12 13 C10.88 17.46 9.23 19.63 6.44 23.25 C5.61 24.33 4.78 25.41 3.93 26.52 C3.3 27.34 2.66 28.16 2 29 C1.67 28.01 1.34 27.02 1 26 C2.98 23.36 5.18 21 7.41 18.57 C9 16 9 16 8.46 13.44 C6.99 10.98 5.44 8.94 3.5 6.81 C2.89 6.14 2.28 5.46 1.66 4.77 C0.46 3.49 -0.76 2.24 -2 1 C-1.34 0.67 -0.68 0.34 0 0 Z " fill="#544f47" transform="translate(284,349)"/>
<path d="M0 0 C0 1.32 0 2.64 0 4 C2.5 4.69 2.5 4.69 5 5 C5 5.33 5 5.66 5 6 C2.19 6.17 2.19 6.17 -12 7 C-12 5.35 -12 3.7 -12 2 C-11.67 2.66 -11.34 3.32 -11 4 C-9.93 3.34 -8.85 2.68 -7.75 2 C-4 0 -4 0 0 0 Z " fill="#4495c0" transform="translate(156,314)"/>
<path d="M0 0 C0.99 0 1.98 0 3 0 C4.69 2 4.69 2 6 4 C5.29 4.55 4.58 5.11 3.85 5.68 C2.93 6.4 2.01 7.13 1.06 7.88 C0.15 8.59 -0.77 9.31 -1.71 10.05 C-4 12 -4 12 -5 14 C-5.99 14 -6.98 14 -8 14 C-7 10 -7 10 -4 7 C-3.34 5.78 -2.68 4.57 -2 3.31 C-1.34 2.22 -0.68 1.13 0 0 Z " fill="#4495c0" transform="translate(124,326)"/>
<path d="M0 0 C0.66 0 1.32 0 2 0 C3.29 2.34 3.29 2.34 4.62 5.38 C5.07 6.37 5.52 7.37 5.98 8.4 C7 11 7 11 7 13 C0.12 12.12 0.12 12.12 -1 11 C-1.24 2.48 -1.24 2.48 0 0 Z " fill="#4495c0" transform="translate(368,168)"/>
<path d="M0 0 C0.99 0.33 1.98 0.66 3 1 C2.34 1 1.68 1 1 1 C1.79 2.94 2.58 4.88 3.38 6.81 C3.82 7.89 4.26 8.97 4.71 10.08 C6 13 6 13 8 16 C3.77 14.94 2.95 14.32 0.19 11.19 C-0.44 10.5 -1.06 9.81 -1.71 9.11 C-2.13 8.41 -2.56 7.72 -3 7 C-2 3 -2 3 0 0 Z " fill="#9dd8f1" transform="translate(384,192)"/>
<path d="M0 0 C3.69 0.31 3.69 0.31 7 1 C7 1.99 7 2.98 7 4 C3.05 6.05 0.49 7 -4 7 C-3 3 -3 3 0 0 Z " fill="#ebfafb" transform="translate(396,293)"/>
<path d="M0 0 C2.31 0.33 4.62 0.66 7 1 C6.34 2.32 5.68 3.64 5 5 C4.62 6.66 4.28 8.32 4 10 C1 9 1 9 -0.25 6.69 C-1 4 -1 4 0 0 Z " fill="#9dd8f1" transform="translate(389,291)"/>
<path d="M0 0 C1 2 1 2 0 5.04 C-0.47 6.22 -0.95 7.41 -1.44 8.62 C-1.91 9.81 -2.38 11 -2.87 12.23 C-3.24 13.14 -3.62 14.06 -4 15 C-6 14 -6 14 -7.06 11.44 C-6.97 6.15 -3.64 3.57 0 0 Z " fill="#4495c0" transform="translate(376,110)"/>
<path d="M0 0 C5.86 0.52 10.6 1.63 16 4 C16.33 4.66 16.66 5.32 17 6 C11.22 5.37 5.38 4.26 0 2 C0 1.34 0 0.68 0 0 Z " fill="#ebfafb" transform="translate(274,90)"/>
<path d="M0 0 C0.66 0 1.32 0 2 0 C2.03 1.6 2.05 3.21 2.06 4.81 C2.07 5.71 2.09 6.6 2.1 7.52 C2 10 2 10 1 13 C-0.32 12.67 -1.64 12.34 -3 12 C-2.55 10 -2.09 8 -1.62 6 C-1.5 5.44 -1.5 5.44 -0.85 2.62 C-0.57 1.76 -0.29 0.89 0 0 Z " fill="#69b8e0" transform="translate(190,331)"/>
<path d="M0 0 C0.66 0 1.32 0 2 0 C2 2 2 2 0.23 3.8 C-0.14 4.16 -0.14 4.16 -2 6 C-3.87 8.61 -5.64 11.27 -7.41 13.95 C-7.94 14.63 -8.46 15.3 -9 16 C-9.66 16 -10.32 16 -11 16 C-9.21 12.42 -7.3 9.52 -4.94 6.31 C-4.22 5.34 -3.51 4.37 -2.78 3.36 C-1 1 -1 1 0 0 Z " fill="#544f47" transform="translate(282,348)"/>
<path d="M0 0 C1.32 0.66 2.64 1.32 4 2 C2.65 4.7 1.37 4.83 -1.44 5.81 C-2.24 6.11 -3.04 6.4 -3.87 6.71 C-4.57 6.8 -5.28 6.9 -6 7 C-6.66 6.01 -7.32 5.02 -8 4 C-6.87 3.53 -5.73 3.05 -4.56 2.56 C-1 1 -1 1 0 0 Z " fill="#18203a" transform="translate(307,349)"/>
<path d="M0 0 C0.66 0 1.32 0 2 0 C2.74 2.65 3.41 5.31 4 8 C3.34 8 2.68 8 2 8 C2 8.66 2 9.32 2 10 C1.34 10 0.68 10 0 10 C-0.66 8.68 -1.32 7.36 -2 6 C-1.34 6 -0.68 6 0 6 C0 4.02 0 2.04 0 0 Z " fill="#c09e7d" transform="translate(144,425)"/>
<path d="M0 0 C0 3 0 3 -1 6 C-0.56 8.69 -0.56 8.69 0 11 C-0.99 11 -1.98 11 -3 11 C-5.06 8.88 -5.06 8.88 -6 6 C-3.19 2.69 -3.19 2.69 0 0 Z " fill="#69b8e0" transform="translate(371,114)"/>
<path d="M0 0 C1.32 0.33 2.64 0.66 4 1 C4.66 2.32 5.32 3.64 6 5 C2.37 5 -1.26 5 -5 5 C-3.68 4.67 -2.36 4.34 -1 4 C-0.67 2.68 -0.34 1.36 0 0 Z " fill="#9dd8f1" transform="translate(240,90)"/>
<path d="M0 0 C3.39 3.03 6.23 6.4 9 10 C6 10 6 10 4.46 8.54 C3.96 7.91 3.46 7.28 2.94 6.62 C1.34 4.65 -0.2 2.8 -2 1 C-1.34 0.67 -0.68 0.34 0 0 Z " fill="#544f47" transform="translate(284,349)"/>
<path d="M0 0 C0 0.99 0 1.98 0 3 C-2.64 3 -5.28 3 -8 3 C-8 2.01 -8 1.02 -8 0 C-4 -1 -4 -1 0 0 Z " fill="#4495c0" transform="translate(392,303)"/>
<path d="M0 0 C0.33 0 0.66 0 1 0 C1.08 4.16 0.98 7.95 0 12 C-1.32 11.67 -2.64 11.34 -4 11 C-3.34 10.67 -2.68 10.34 -2 10 C-2 9.26 -2 8.51 -2 7.75 C-2 4.69 -1.33 2.73 0 0 Z " fill="#c09e7d" transform="translate(167,433)"/>
<path d="M0 0 C0.33 0 0.66 0 1 0 C1.32 4.63 0.86 7.29 -2 11 C-2.99 11.33 -3.98 11.66 -5 12 C-3.41 7.97 -1.78 3.95 0 0 Z " fill="#22396f" transform="translate(412,243)"/>
<path d="M0 0 C0.66 0 1.32 0 2 0 C1.67 3.63 1.34 7.26 1 11 C0.01 10.34 -0.98 9.68 -2 9 C-1.93 6.84 -1.93 6.84 -1.31 4.38 C-1.12 3.56 -0.93 2.74 -0.74 1.9 C-0.62 1.59 -0.62 1.59 0 0 Z " fill="#18203a" transform="translate(197,194)"/>
<path d="M0 0 C1.32 0.33 2.64 0.66 4 1 C3.01 1 2.02 1 1 1 C0.67 2.98 0.34 4.96 0 7 C-1.32 6.34 -2.64 5.68 -4 5 C-2.25 2.44 -2.25 2.44 0 0 Z " fill="#c09e7d" transform="translate(113,377)"/>
<path d="M0 0 C1 2 1 2 0.25 4.56 C-1 7 -1 7 -4 8 C-4.33 7.34 -4.66 6.68 -5 6 C-3.4 3.95 -1.73 1.94 0 0 Z " fill="#4495c0" transform="translate(376,110)"/>
<path d="M0 0 C1.66 0 3 1.34 3 2 C3 3.66 1.66 5 0 5 C-1.11 5 -2 4.11 -2 2 C-2 0.89 -1.11 0 0 0 Z " fill="#4495c0" transform="translate(361,125.99983442999999)"/>
<path d="M0 0 C3.56 1.81 3.56 1.81 7 4 C6.67 4.99 6.34 5.98 6 7 C2 5 2 5 0.75 2.38 C0.5 1.59 0.25 0.81 0 0 Z " fill="#18203a" transform="translate(278,373)"/>
<path d="M0 0 C0.66 0 1.32 0 2 0 C2.62 2.5 2.62 2.5 3 5 C2.34 5 1.68 5 1 5 C1 6.65 1 8.3 1 10 C0.67 10 0.34 10 0 10 C0 6.7 0 3.4 0 0 Z " fill="#8f7d6e" transform="translate(156,429)"/>
<path d="M0 0 C1.65 1.65 3.3 3.3 5 5 C4.34 5.33 4.34 5.33 1 7 C0.67 4.69 0.34 2.38 0 0 Z " fill="#22396f" transform="translate(67,240)"/>
</svg>
